<svg xmlns="http://www.w3.org/2000/svg" width="30" height="30" viewBox="0 0 30 30">
    <g fill="none" fill-rule="evenodd">
        <rect width="30" height="30" fill="#D77BE9" rx="15"/>
        <path fill="#FFF" fill-rule="nonzero" d="M21.6 7.2v.6H24v-.6h-.9v-.9a.3.3 0 0 0-.3-.3h-1.2a.3.3 0 0 0-.212.088L19.076 8.4h-5.152l1.8-1.8h.776v.6h-.9v.6H18v-.6h-.9v-.9a.3.3 0 0 0-.3-.3h-1.2a.3.3 0 0 0-.212.088L13.076 8.4H7.624l1.8-1.8h.776v.6h-.9v.6h2.4v-.6h-.9v-.9a.3.3 0 0 0-.3-.3H9.3a.3.3 0 0 0-.212.088L6.776 8.4H6.3a.3.3 0 0 0-.3.3v11.4a.3.3 0 0 0 .3.3h1.5v3.3a.3.3 0 0 0 .3.3h1.5a.3.3 0 0 0 .3-.3v-3.3h10.2v3.3a.3.3 0 0 0 .3.3h1.5a.3.3 0 0 0 .3-.3v-3.3h1.5a.3.3 0 0 0 .3-.3V8.7a.3.3 0 0 0-.3-.3h-3.776l1.8-1.8h.776v.6h-.9zM9.3 23.4h-.9v-3h.9v3zm12.3 0h-.9v-3h.9v3zM23.4 9v10.8H6.6V9h16.8z"/>
    </g>
</svg>
