<svg xmlns="http://www.w3.org/2000/svg" width="30" height="30" viewBox="0 0 30 30">
    <g fill="none" fill-rule="evenodd">
        <rect width="30" height="30" fill="#7ED321" rx="15"/>
        <path fill="#FFF" fill-rule="nonzero" d="M23.962 14.383c0-.79-.345-1.54-.946-2.051.229-.374.35-.804.348-1.242a2.399 2.399 0 0 0-2.117-2.38 2.39 2.39 0 0 0-4.318-1.703 2.388 2.388 0 0 0-3.896 0 2.391 2.391 0 0 0-4.318 1.704A2.399 2.399 0 0 0 6.6 11.09c-.002.438.119.868.348 1.242a2.694 2.694 0 0 0 0 4.101 2.398 2.398 0 0 0 2.047 3.638h1.796v3.293h-.898a.3.3 0 0 0 0 .599H20.07a.3.3 0 0 0 0-.599h-.899v-3.293h1.797a2.398 2.398 0 0 0 2.395-2.395 2.361 2.361 0 0 0-.348-1.242 2.692 2.692 0 0 0 .946-2.051zM8.994 19.469a1.798 1.798 0 0 1-1.797-1.793 1.776 1.776 0 0 1 .393-1.12.3.3 0 0 0-.066-.434 2.096 2.096 0 0 1 0-3.478.3.3 0 0 0 .066-.435 1.776 1.776 0 0 1-.393-1.12 1.798 1.798 0 0 1 1.797-1.796l.077.005a.293.293 0 0 0 .248-.116.298.298 0 0 0 .05-.27 1.796 1.796 0 0 1 3.344-1.283c0 .003 0 .006-.002.01a2.356 2.356 0 0 0-.087.343l-.009.06a2.256 2.256 0 0 0-.008.668 2.399 2.399 0 0 0-1.768 3.622l-.016.014-1.393-1.393a.3.3 0 0 0-.423.423l1.41 1.41a2.691 2.691 0 0 0 .422 3.648 2.343 2.343 0 0 0-.263.605l-1.071-1.072a.3.3 0 0 0-.424.424l1.416 1.415c.002.042.003.084.008.125.003.028.008.055.012.082.008.056.016.11.027.165.007.032.017.063.025.095.012.048.024.096.04.143.01.033.023.065.036.098a2.14 2.14 0 0 0 .162.345 2.926 2.926 0 0 0 .279.39 2.607 2.607 0 0 0 .168.173c.017.015.032.033.049.047h-2.31zm5.688 3.895h-3.293v-3.293h3.293v3.293zm.3-13.472a.3.3 0 0 0-.3.3v2.12l-1.36-1.36a.3.3 0 0 0-.424.424l1.784 1.784v4.093l-1.285-1.286a.3.3 0 0 0-.424.424l1.709 1.708v1.373h-1.796a1.798 1.798 0 0 1-1.797-1.796 1.776 1.776 0 0 1 .393-1.12.3.3 0 0 0-.066-.434 2.096 2.096 0 0 1 0-3.478.3.3 0 0 0 .066-.435 1.776 1.776 0 0 1-.393-1.12 1.798 1.798 0 0 1 1.797-1.796l.077.005a.29.29 0 0 0 .248-.116.298.298 0 0 0 .05-.27 1.8 1.8 0 0 1-.043-.859A1.796 1.796 0 0 1 14.981 6.6a1.796 1.796 0 0 1 1.72 2.313.298.298 0 0 0 .05.27c.058.077.151.12.248.116l.078-.005a1.798 1.798 0 0 1 1.796 1.797c.001.407-.138.802-.393 1.119a.3.3 0 0 0 .066.435 2.096 2.096 0 0 1 0 3.478.3.3 0 0 0-.066.435c.255.317.394.712.393 1.119a1.798 1.798 0 0 1-1.796 1.796H15.28v-4.088a.289.289 0 0 0 .062-.041l1.945-1.946a.3.3 0 0 0-.423-.423l-1.584 1.584v-4.366a.3.3 0 0 0-.3-.3zm3.592 13.472H15.28v-3.293h3.293v3.293zm3.784-6.827l.014.02c.255.317.394.712.393 1.119a1.798 1.798 0 0 1-1.796 1.796h-2.31l.05-.048a2.023 2.023 0 0 0 .252-.275 2.005 2.005 0 0 0 .14-.198l.055-.09.064-.12.046-.095c.019-.042.035-.086.052-.13.012-.032.025-.064.036-.097.015-.047.027-.095.04-.143.007-.032.017-.063.024-.095.012-.055.02-.11.027-.165.004-.028.01-.054.013-.083a2.386 2.386 0 0 0-.334-1.5 2.69 2.69 0 0 0 .94-1.92l1.116-1.116a.3.3 0 0 0-.423-.423l-.767.766a2.69 2.69 0 0 0-.866-1.407 2.399 2.399 0 0 0-1.768-3.622c.03-.222.026-.447-.01-.668-.003-.02-.005-.04-.01-.06a2.356 2.356 0 0 0-.085-.344c0-.003 0-.006-.002-.009a1.796 1.796 0 0 1 3.343 1.283.298.298 0 0 0 .05.27c.059.077.151.12.248.115l.079-.005a1.798 1.798 0 0 1 1.796 1.797c.001.407-.138.802-.393 1.119a.3.3 0 0 0 .066.435 2.096 2.096 0 0 1 0 3.478.3.3 0 0 0-.08.415z"/>
    </g>
</svg>
