<svg width="60px" height="60px" viewBox="0 0 60 60" version="1.1" xmlns="http://www.w3.org/2000/svg" xmlns:xlink="http://www.w3.org/1999/xlink">
    <!-- Generator: Sketch 51.1 (57501) - http://www.bohemiancoding.com/sketch -->
    <desc>Created with Sketch.</desc>
    <defs></defs>
    <g id="Page-1" stroke="none" stroke-width="1" fill="none" fill-rule="evenodd">
        <g id="Landing-du" transform="translate(-1140.000000, -769.000000)">
            <g id="Group-16" transform="translate(850.000000, 759.000000)">
                <g id="Group-12" transform="translate(280.000000, 0.000000)">
                    <rect id="Rectangle-8" x="0" y="0" width="80" height="80"></rect>
                    <path d="M69.8748101,37.9425957 C69.8759327,35.3110781 68.7219618,32.8117849 66.718386,31.105839 C67.482045,29.8601841 67.8839577,28.4265458 67.8789681,26.9654648 C67.873729,22.9173982 64.8436666,19.5118681 60.8236666,19.0359845 C60.8703194,18.6873359 60.8937706,18.3359429 60.8935211,17.9841758 C60.9038745,13.5849658 57.3460367,10.0104128 52.9468267,10.0000594 C50.3582196,9.99394709 47.9280325,11.2462132 46.4306521,13.357814 C43.8894463,9.77153544 38.9221697,8.92442526 35.3358912,11.4656311 C34.6029182,11.985049 33.9631261,12.6248411 33.4437082,13.357814 C30.8884067,9.77278285 25.9107768,8.93802193 22.3257456,11.4931986 C19.9213797,13.2068785 18.661255,16.109207 19.0506937,19.0359845 C15.0306937,19.5118681 12.0006313,22.9173982 11.9953922,26.9654648 C11.9904026,28.4265458 12.3923153,29.8601841 13.1559743,31.105839 C9.38071444,34.3231363 8.92840675,39.9918265 12.145704,43.7670864 C12.4550596,44.1302049 12.7929806,44.4680011 13.1559743,44.7773567 C12.3919411,46.0236352 11.9900284,47.4578972 11.9953922,48.9197267 C12.0003818,53.3267953 15.5716916,56.8981051 19.9787602,56.9030947 L25.9662862,56.9030947 L25.9662862,67.8802257 L22.9725232,67.8802257 C22.4214213,67.8802257 21.9746022,68.3270448 21.9746022,68.8781467 C21.9746022,69.4292485 22.4214213,69.8760677 22.9725232,69.8760677 L56.9018371,69.8760677 C57.452939,69.8760677 57.8997581,69.4292485 57.8997581,68.8781467 C57.8997581,68.3270448 57.452939,67.8802257 56.9018371,67.8802257 L53.9080741,67.8802257 L53.9080741,56.9030947 L59.8956001,56.9030947 C64.3026687,56.8981051 67.8739785,53.3267953 67.8789681,48.9197267 C67.8839577,47.4586456 67.482045,46.0250074 66.718386,44.7793525 C68.7219618,43.0734065 69.875808,40.5739887 69.8748101,37.9425957 Z M19.9787602,54.8982714 C16.6767643,54.8950282 13.999467,52.2217226 13.9912342,48.9197267 C13.9873672,47.5625542 14.4499036,46.2452984 15.3015045,45.1885001 C15.645413,44.7578972 15.5751843,44.1299554 15.1445814,43.7859221 C15.1237498,43.769207 15.1021697,43.753365 15.079966,43.7385209 C11.8790097,41.5850074 11.0297789,37.2444253 13.1831677,34.0433442 C13.686993,33.2945292 14.3310263,32.6503712 15.079966,32.1466706 C15.5367643,31.8384377 15.6572633,31.2181051 15.3489057,30.7613068 C15.3339369,30.739103 15.3180949,30.7176477 15.3015045,30.6966914 C14.4499036,29.639893 13.9873672,28.3226373 13.9912342,26.9654648 C13.9944774,23.6599762 16.6732716,20.981182 19.9787602,20.9779388 L20.2372217,20.9919097 C20.5599244,21.0080011 20.8696542,20.8634273 21.0644982,20.6057142 C21.262835,20.3512444 21.3249556,20.0161924 21.231151,19.7075853 C20.2963485,16.5356934 22.1099452,13.2065043 25.2819618,12.2717018 C28.1017124,11.4406831 31.1075751,12.7796436 32.3759327,15.4314939 C32.3759327,15.4414731 32.3759327,15.4514523 32.3689473,15.4614315 C32.2445814,15.8355271 32.1484067,16.2184793 32.081546,16.6070448 C32.069571,16.6739055 32.0605897,16.7417641 32.0506105,16.806629 C31.9312342,17.5433442 31.9221282,18.293656 32.0236666,19.0329907 C28.002544,19.5091238 24.9721074,22.9161508 24.9683652,26.9654648 C24.9633756,28.4265458 25.3652882,29.8601841 26.1289473,31.105839 C26.1109847,31.1218057 26.0960159,31.1387704 26.0780533,31.1547371 L21.4327311,26.5094149 C21.036307,26.1265874 20.4044982,26.1375646 20.0216708,26.5339887 C19.6481988,26.9206831 19.6481988,27.5337808 20.0216708,27.9204752 L24.7238745,32.6226789 C21.9268267,36.4150282 22.5405481,41.7249658 26.1289473,44.7793525 C25.7438745,45.407419 25.4494878,46.086629 25.2547685,46.7971487 L21.6822113,43.2245916 C21.2857872,42.8416394 20.6541032,42.8526165 20.271151,43.2490406 C19.8976791,43.635735 19.8976791,44.2488327 20.271151,44.6356519 L24.9903194,49.3548203 C24.9983028,49.4935313 25.0002986,49.6332402 25.0152675,49.7689575 C25.0252467,49.8627621 25.0442072,49.9525749 25.0571801,50.0443837 C25.0831261,50.2289991 25.109072,50.4126165 25.1479909,50.5932402 C25.1709431,50.7010157 25.2028766,50.8047995 25.2298205,50.9105791 C25.2707352,51.0702465 25.31165,51.2309117 25.362544,51.3865874 C25.3984691,51.4973567 25.4413797,51.6031363 25.4822945,51.7119097 C25.5371801,51.8576061 25.5920658,52.0043005 25.6559327,52.1460053 C25.7038329,52.2537808 25.7557248,52.3585625 25.8086146,52.4633442 C25.8764733,52.6000594 25.9463277,52.7347787 26.0211718,52.8625126 C26.0800492,52.9623047 26.1429182,53.0620968 26.2067851,53.1618889 C26.2866188,53.2886248 26.3684483,53.412367 26.4552675,53.5331155 C26.524124,53.6329076 26.5959743,53.7257142 26.6698205,53.8195188 C26.7606313,53.9372735 26.8554338,54.0500386 26.95323,54.1618057 C27.0320658,54.2516186 27.1118995,54.3404336 27.193729,54.4262548 C27.2935211,54.5340302 27.4042903,54.6368161 27.5140616,54.7386041 C27.5689473,54.7904959 27.6198413,54.8483754 27.6767228,54.8982714 L19.9787602,54.8982714 Z M38.9392591,67.8802257 L27.9621282,67.8802257 L27.9621282,56.9030947 L38.9392591,56.9030947 L38.9392591,67.8802257 Z M39.9371801,22.9737808 C39.3860783,22.9737808 38.9392591,23.4205999 38.9392591,23.9717018 L38.9392591,31.04297 L34.405704,26.5094149 C34.0092799,26.1265874 33.3774712,26.1375646 32.9946438,26.5339887 C32.6211718,26.9206831 32.6211718,27.5337808 32.9946438,27.9204752 L38.9392591,33.8650905 L38.9392591,47.5086664 L34.6551843,43.2245916 C34.2587602,42.8416394 33.6270762,42.8526165 33.244124,43.2490406 C32.8706521,43.635735 32.8706521,44.2488327 33.244124,44.6356519 L38.9392591,50.330787 L38.9392591,54.9072527 L32.9517332,54.9072527 C29.6462446,54.9040095 26.9674504,52.2252153 26.9642072,48.9197267 C26.9603402,47.5625542 27.4228766,46.2452984 28.2744774,45.1885001 C28.618386,44.7578972 28.5481573,44.1299554 28.1175544,43.7859221 C28.0967228,43.769207 28.0751427,43.753365 28.052939,43.7385209 C24.8519826,41.5850074 24.0027519,37.2444253 26.1561406,34.0433442 C26.659966,33.2945292 27.3039993,32.6503712 28.052939,32.1466706 C28.5097373,31.8384377 28.6302363,31.2181051 28.3218787,30.7613068 C28.3069099,30.739103 28.2910679,30.7176477 28.2744774,30.6966914 C27.4228766,29.639893 26.9603402,28.3226373 26.9642072,26.9654648 C26.9674504,23.6599762 29.6462446,20.981182 32.9517332,20.9779388 L33.2101947,20.9919097 C33.5332716,21.0098722 33.8437498,20.8649242 34.0374712,20.6057142 C34.235808,20.3512444 34.2979286,20.0161924 34.204124,19.7075853 C34.0359743,19.1485001 33.9501531,18.5679596 33.9496542,17.9841758 C33.9501531,17.6158182 33.9853298,17.2483338 34.0544359,16.8864627 C34.0544359,16.8724918 34.0544359,16.857523 34.0604234,16.8435521 C34.1327727,16.4833026 34.2373049,16.130288 34.3727727,15.7887496 C35.2737706,13.5026373 37.4799244,11.9991446 39.9371801,11.9966498 C42.3944359,11.9991446 44.6005897,13.5026373 45.5015876,15.7887496 C45.6374296,16.1325334 45.7419618,16.487918 45.8139369,16.8505375 C45.8139369,16.8645084 45.8139369,16.8794772 45.8199244,16.8934481 C45.8886562,17.2529492 45.9237082,17.6181883 45.9247061,17.9841758 C45.9242072,18.5679596 45.838386,19.1485001 45.6702363,19.7075853 C45.5764317,20.0161924 45.6385523,20.3512444 45.8368891,20.6057142 C46.0313589,20.8639263 46.3413381,21.0086248 46.6641656,20.9919097 L46.9226271,20.9779388 C50.2281157,20.981182 52.9069099,23.6599762 52.9101531,26.9654648 C52.9140201,28.3226373 52.4514837,29.639893 51.5998828,30.6966914 C51.2559743,31.1272943 51.326203,31.7552361 51.7568059,32.0992693 C51.7776375,32.1159845 51.7992176,32.1318265 51.8214213,32.1466706 C55.0223776,34.3001841 55.8716084,38.6407662 53.7180949,41.8418473 C53.2142695,42.5906623 52.5702363,43.2348203 51.8214213,43.7385209 C51.364623,44.0467537 51.244124,44.6670864 51.5524816,45.1238847 C51.5674504,45.1460885 51.5832924,45.1675438 51.5998828,45.1885001 C52.4514837,46.2452984 52.9140201,47.5625542 52.9101531,48.9197267 C52.9069099,52.2252153 50.2281157,54.9040095 46.9226271,54.9072527 L40.9351011,54.9072527 L40.9351011,41.2806415 C41.009571,41.2438431 41.0790512,41.1975646 41.1416708,41.1429284 L47.6281573,34.6564419 C48.0111095,34.2600178 48.0001323,33.6283338 47.6037082,33.2453816 C47.2170138,32.8719097 46.6039161,32.8719097 46.217097,33.2453816 L40.9351011,38.5273774 L40.9351011,23.9717018 C40.9351011,23.4204752 40.488282,22.9737808 39.9371801,22.9737808 Z M51.9122321,67.8802257 L40.9351011,67.8802257 L40.9351011,56.9030947 L51.9122321,56.9030947 L51.9122321,67.8802257 Z M64.5253298,45.1238847 C64.5402986,45.1460885 64.5561406,45.1675438 64.5727311,45.1885001 C65.4243319,46.2452984 65.8868683,47.5625542 65.8830013,48.9197267 C65.8797581,52.2252153 63.2009639,54.9040095 59.8954754,54.9072527 L52.1976375,54.9072527 C52.254519,54.8573567 52.305413,54.7994772 52.3602986,54.7475853 C52.47007,54.6477932 52.5768475,54.5430115 52.6806313,54.4352361 C52.7624608,54.3494149 52.8422945,54.2605999 52.9211302,54.170787 C53.0209223,54.0590199 53.113729,53.9462548 53.2045398,53.8285001 C53.278386,53.7346955 53.3502363,53.639893 53.4190928,53.5420968 C53.5059119,53.4213483 53.5877415,53.2976061 53.6675751,53.1708702 C53.7314421,53.0710781 53.7943111,52.971286 53.8531885,52.8714939 C53.9280325,52.7397683 53.997887,52.605049 54.0657456,52.4723255 C54.1176375,52.3675438 54.1655377,52.2627621 54.2184275,52.1549866 C54.2822945,52.0132818 54.3371801,51.8665874 54.3920658,51.720891 C54.4329806,51.6121176 54.4758912,51.5063379 54.5118163,51.3955687 C54.5627103,51.239893 54.603625,51.0792278 54.6445398,50.9195604 C54.6714837,50.8137808 54.7034171,50.709997 54.7263693,50.6022215 C54.7652882,50.4215978 54.7912342,50.2379804 54.8171801,50.053365 C54.8301531,49.9615562 54.8491136,49.8717433 54.8590928,49.7779388 C54.8901531,49.4929076 54.9058704,49.2063795 54.9059951,48.9197267 C54.9109847,47.4586456 54.509072,46.0250074 53.745413,44.7793525 C55.6288641,43.1705791 56.7627519,40.8540302 56.877887,38.3796851 L60.6011302,34.6564419 C60.9840824,34.2600178 60.9731053,33.6283338 60.5766812,33.2453816 C60.1899868,32.8719097 59.5768891,32.8719097 59.19007,33.2453816 L56.6343943,35.8010573 C56.1875751,33.9732402 55.1768059,32.3322839 53.745413,31.1108286 C54.5099452,29.8638016 54.9118579,28.4282922 54.9059951,26.9654648 C54.900756,22.9173982 51.8706937,19.5118681 47.8506937,19.0359845 C47.9512342,18.296525 47.9411302,17.5460885 47.820756,16.8096228 C47.8107768,16.7417641 47.8017955,16.6739055 47.7898205,16.6100386 C47.7229598,16.2214731 47.6267851,15.8385209 47.5024192,15.4644253 C47.5024192,15.454446 47.5024192,15.4444668 47.4954338,15.4344876 C48.9223361,12.4513275 52.4972633,11.1897059 55.4804234,12.6166082 C58.1322737,13.8849658 59.4711095,16.8909533 58.6402155,19.7105791 C58.5464109,20.0191862 58.6085315,20.3542381 58.8068683,20.608708 C59.0017124,20.8664211 59.3114421,21.0109949 59.6341448,20.9949034 L59.8956001,20.9779388 C63.2010887,20.981182 65.8798828,23.6599762 65.8831261,26.9654648 C65.886993,28.3226373 65.4244566,29.639893 64.5728558,30.6966914 C64.2289473,31.1272943 64.299176,31.7552361 64.7297789,32.0992693 C64.7506105,32.1159845 64.7721905,32.1318265 64.7943943,32.1466706 C67.9953506,34.3001841 68.8445814,38.6407662 66.6910679,41.8418473 C66.1872425,42.5906623 65.5432092,43.2348203 64.7943943,43.7385209 C64.3374712,44.0467537 64.217097,44.6670864 64.5253298,45.1238847 Z" id="Shape" fill="#86A438" fill-rule="nonzero" opacity="0.5"></path>
                </g>
            </g>
        </g>
    </g>
</svg>
