<svg width="60px" height="60px" viewBox="0 0 60 60" version="1.1" xmlns="http://www.w3.org/2000/svg" xmlns:xlink="http://www.w3.org/1999/xlink">
    <!-- Generator: Sketch 51.1 (57501) - http://www.bohemiancoding.com/sketch -->
    <desc>Created with Sketch.</desc>
    <defs></defs>
    <g id="Page-1" stroke="none" stroke-width="1" fill="none" fill-rule="evenodd">
        <g id="Landing-du" transform="translate(-80.000000, -769.000000)">
            <g id="Group-15" transform="translate(70.000000, 759.000000)">
                <g id="Group-8">
                    <rect id="Rectangle-8-Copy-5" x="0" y="0" width="80" height="80"></rect>
                    <path d="M62,14 L62,16 L70,16 L70,14 L67,14 L67,11 C67,10.44775 66.55275,10 66,10 L62,10 C61.734375,10 61.4805,10.1055 61.293,10.293 L53.586,18 L36.414125,18 L42.414125,12 L45,12 L45,14 L42,14 L42,16 L50,16 L50,14 L47,14 L47,11 C47,10.44775 46.55275,10 46,10 L42,10 C41.734375,10 41.4805,10.1055 41.293,10.293 L33.586,18 L15.414125,18 L21.414125,12 L24,12 L24,14 L21,14 L21,16 L29,16 L29,14 L26,14 L26,11 C26,10.44775 25.55275,10 25,10 L21,10 C20.734375,10 20.4805,10.1055 20.293,10.293 L12.586,18 L11,18 C10.44725,18 10,18.44775 10,19 L10,57 C10,57.55225 10.44725,58 11,58 L16,58 L16,69 C16,69.55225 16.44725,70 17,70 L22,70 C22.55275,70 23,69.55225 23,69 L23,58 L57,58 L57,69 C57,69.55225 57.44725,70 58,70 L63,70 C63.55275,70 64,69.55225 64,69 L64,58 L69,58 C69.55275,58 70,57.55225 70,57 L70,19 C70,18.44775 69.55275,18 69,18 L56.414125,18 L62.414125,12 L65,12 L65,14 L62,14 Z M21,68 L18,68 L18,58 L21,58 L21,68 Z M62,68 L59,68 L59,58 L62,58 L62,68 Z M68,20 L68,56 L63,56 L58,56 L22,56 L17,56 L12,56 L12,20 L68,20 Z" id="Shape" fill="#86A438" fill-rule="nonzero" opacity="0.5"></path>
                </g>
            </g>
        </g>
    </g>
</svg>
