<svg width="60px" height="60px" viewBox="0 0 60 60" version="1.1" xmlns="http://www.w3.org/2000/svg" xmlns:xlink="http://www.w3.org/1999/xlink">
    <!-- Generator: Sketch 51.1 (57501) - http://www.bohemiancoding.com/sketch -->
    <desc>Created with Sketch.</desc>
    <defs></defs>
    <g id="Page-1" stroke="none" stroke-width="1" fill="none" fill-rule="evenodd">
        <g id="Landing-du" transform="translate(-220.000000, -769.000000)">
            <g id="Group-15" transform="translate(70.000000, 759.000000)">
                <g id="Group-10" transform="translate(140.000000, 0.000000)">
                    <rect id="Rectangle-8-Copy-4" x="0" y="0" width="80" height="80"></rect>
                    <path d="M10,29.305 L11.9305405,29.305 L11.9305405,69.8455405 L17.7219595,69.8455405 L17.7219595,29.305 L41.0791892,29.305 L37.1303378,64.0541216 L31.2355405,64.0541216 L31.2355405,69.8455405 L67.915,69.8455405 L67.915,65.9844595 L67.915,64.0539189 L67.915,29.305 L69.8455405,29.305 L69.8455405,10 L10,10 L10,29.305 Z M15.7914189,67.915 L13.8608784,67.915 L13.8608784,29.305 L15.7914189,29.305 L15.7914189,67.915 Z M38.9151351,27.3744595 L41.7442568,23.4564189 L41.2993243,27.3744595 L38.9151351,27.3744595 Z M42.0347297,37.9922297 L57.1158108,37.9922297 L58.3222973,48.61 L40.8280405,48.61 L42.0347297,37.9922297 Z M56.3485811,31.2355405 L56.8968919,36.0618919 L42.2540541,36.0618919 L42.8031757,31.2355405 L56.3485811,31.2355405 Z M43.0222973,29.305 L43.6806757,23.5135811 L55.4700676,23.5135811 L56.1284459,29.305 L43.0222973,29.305 Z M58.0713514,29.305 L62.1233784,29.305 L62.1233784,64.0541216 L62.0202027,64.0541216 L58.0713514,29.305 Z M40.6091216,50.5405405 L58.5414189,50.5405405 L59.0897297,55.3668919 L40.0608108,55.3668919 L40.6091216,50.5405405 Z M39.8416892,57.2972297 L59.3098649,57.2972297 L60.0772973,64.0539189 L39.0734459,64.0539189 L39.8416892,57.2972297 Z M65.9844595,67.915 L33.1660811,67.915 L33.1660811,65.9844595 L36.9112162,65.9844595 L62.1235811,65.9844595 L62.2393243,65.9844595 L65.9844595,65.9844595 L65.9844595,67.915 Z M64.0539189,64.0541216 L64.0539189,29.305 L65.9844595,29.305 L65.9844595,64.0541216 L64.0539189,64.0541216 Z M67.915,27.3744595 L62.1235811,27.3744595 L67.915,19.6525 L67.915,27.3744595 Z M67.915,11.9307432 L67.915,16.4354054 L59.7104054,27.3746622 L57.8514189,27.3746622 L57.3764865,23.1951351 L65.5125676,11.9307432 L67.915,11.9307432 Z M63.1312162,11.9305405 L56.1602703,21.5830405 L50.8194595,21.5830405 L57.7904054,11.9305405 L63.1312162,11.9305405 Z M55.4092568,11.9305405 L48.4383108,21.5830405 L43.0975,21.5830405 L50.0684459,11.9305405 L55.4092568,11.9305405 Z M47.6872973,11.9305405 L36.5337838,27.3744595 L31.192973,27.3744595 L42.3464865,11.9305405 L47.6872973,11.9305405 Z M39.9653378,11.9305405 L28.8118243,27.3744595 L23.4710135,27.3744595 L34.624527,11.9305405 L39.9653378,11.9305405 Z M32.2433784,11.9305405 L21.0898649,27.3744595 L17.7219595,27.3744595 L15.7490541,27.3744595 L26.9025676,11.9305405 L32.2433784,11.9305405 Z M11.9305405,11.9305405 L16.7915541,11.9305405 L11.9305405,18.6148649 L11.9305405,11.9305405 Z M11.9305405,21.8966216 L19.1785811,11.9305405 L24.5212162,11.9305405 L13.3677027,27.3744595 L11.9305405,27.3744595 L11.9305405,21.8966216 Z" id="Shape" fill="#86A438" fill-rule="nonzero" opacity="0.5"></path>
                </g>
            </g>
        </g>
    </g>
</svg>
