<svg width="469px" height="338px" viewBox="0 0 469 338" version="1.1" xmlns="http://www.w3.org/2000/svg" xmlns:xlink="http://www.w3.org/1999/xlink">
    <!-- Generator: Sketch 51.1 (57501) - http://www.bohemiancoding.com/sketch -->
    <desc>Created with Sketch.</desc>
    <defs></defs>
    <g id="Page-1" stroke="none" stroke-width="1" fill="none" fill-rule="evenodd">
        <g id="Landing-du" transform="translate(-690.000000, -75.000000)">
            <rect id="Rectangle-4" fill="#C0DC76" x="839" y="217" width="74" height="20" rx="10"></rect>
            <rect id="Rectangle-4-Copy-2" fill="#C0DC76" x="919" y="217" width="24" height="20" rx="10"></rect>
            <rect id="Rectangle-4-Copy" fill="#DEF0AD" x="690" y="261" width="262" height="20" rx="10"></rect>
            <rect id="Rectangle-4-Copy-3" fill="#DEF0AD" x="802" y="177" width="40" height="20" rx="10"></rect>
            <rect id="Rectangle-4-Copy-4" fill="#C0DC76" x="863" y="177" width="117" height="20" rx="10"></rect>
            <g id="smartphone" transform="translate(905.000000, 75.000000)">
                <rect id="Rectangle-path" fill="#F4F4F4" fill-rule="nonzero" x="107.666182" y="273.896552" width="139.636364" height="64.1034483"></rect>
                <path d="M200.757091,338 L107.666182,338 L107.666182,273.896552 L162.508364,273.896552 C183.634182,273.896552 200.757091,291.047138 200.757091,312.207103 L200.757091,338 Z" id="Shape" fill="#E7ECED" fill-rule="nonzero"></path>
                <ellipse id="Oval" fill="#C0DC76" fill-rule="nonzero" cx="162.938909" cy="305.948276" rx="14.5454545" ry="14.5689655"></ellipse>
                <path d="M153.653091,62.3668276 C160.826909,59.2082759 165.848,52.052 165.848,43.7068966 C165.848,32.4421724 156.730909,23.3103448 145.484364,23.3103448 C137.146909,23.3103448 130.002182,28.3395517 126.854545,35.5249655 L153.653091,62.3668276 Z" id="Shape" fill="#FFE9D1" fill-rule="nonzero"></path>
                <path d="M182.744,91.5047586 C189.917818,88.3462069 194.938909,81.189931 194.938909,72.8448276 C194.938909,61.5801034 185.821818,52.4482759 174.575273,52.4482759 C166.237818,52.4482759 159.093091,57.4774828 155.945455,64.6628966 L182.744,91.5047586 Z" id="Shape" fill="#FFE9D1" fill-rule="nonzero"></path>
                <path d="M211.834909,120.64269 C219.008727,117.484138 224.029818,110.327862 224.029818,101.982759 C224.029818,90.7180345 214.912727,81.5862069 203.666182,81.5862069 C195.328727,81.5862069 188.184,86.6154138 185.036364,93.8008276 L211.834909,120.64269 Z" id="Shape" fill="#FFE9D1" fill-rule="nonzero"></path>
                <path d="M240.925818,149.780621 C248.099636,146.622069 253.120727,139.465793 253.120727,131.12069 C253.120727,119.855966 244.003636,110.724138 232.757091,110.724138 C224.419636,110.724138 217.274909,115.753345 214.127273,122.938759 L240.925818,149.780621 Z" id="Shape" fill="#FFE9D1" fill-rule="nonzero"></path>
                <path d="M242.275636,183.936103 L177.577455,248.738862 C172.364364,253.960379 163.910545,253.960379 158.703273,248.738862 L102.371636,192.310345 L64.0356364,192.310345 C60.6727273,193.959552 51.4974545,188.009586 55.0174545,191.034103 L117.923636,253.797207 C118.354182,254.228448 118.854545,254.53731 119.308364,254.927759 L119.308364,273.896552 L235.672,273.896552 L235.672,247.614138 C246.255273,239.636172 253.126545,226.996138 253.126545,212.706897 C253.120727,201.675276 249.007273,191.628517 242.275636,183.936103 Z" id="Shape" fill="#F9DEBC" fill-rule="nonzero"></path>
                <path d="M108.201455,16.8358966 L17.688,107.495655 L61.8596364,151.73869 C62.5869091,151.662931 63.2909091,151.517241 64.0298182,151.517241 L122.211636,151.517241 C133.411636,151.517241 142.575273,160.69569 142.575273,171.913793 C142.575273,183.131897 133.411636,192.310345 122.211636,192.310345 L102.365818,192.310345 L139.340364,229.344655 L229.848,138.684897 L108.201455,16.8358966 Z" id="Shape" fill="#DEF0AD" fill-rule="nonzero"></path>
                <path d="M173.064113,96.8834004 L169.623185,96.8834004 L169.623185,91.7334004 C169.623185,90.7034004 168.935081,90.0168008 167.902823,90.0168008 L157.580242,90.0168008 C156.547984,90.0168008 155.859879,90.7034004 155.859879,91.7334004 L155.859879,96.8834004 L152.418952,96.8834004 C151.386694,96.8834004 150.698589,97.57 150.698589,98.6 L150.698589,126.0666 L148.978226,126.0666 L148.978226,120.9166 C148.978226,119.8866 148.290121,119.2 147.257863,119.2 L145.537298,119.2 L145.537298,117.4834 C145.537298,116.4534 144.849194,115.766801 143.816935,115.766801 C142.784677,115.766801 142.096573,116.4534 142.096573,117.4834 L142.096573,119.2 L140.376008,119.2 C139.34375,119.2 138.655645,119.8866 138.655645,120.9166 L138.655645,126.0666 L133.494355,126.0666 L133.494355,91.7334004 C133.494355,90.7034004 132.80625,90.0168008 131.773992,90.0168008 L126.612702,90.0168008 L126.612702,79.7168008 C126.6125,78.6865996 125.924395,78 124.892137,78 L104.246976,78 C103.214718,78 102.526613,78.6865996 102.526613,79.7165996 L102.526613,90.0165996 L97.3653226,90.0165996 C96.3330645,90.0165996 95.6449597,90.7031992 95.6449597,91.7331992 L95.6449597,136.3666 L92.2040323,136.3666 L92.2040323,131.2166 C92.2040323,130.1866 91.5159274,129.5 90.4836694,129.5 L80.1610887,129.5 C79.1288306,129.5 78.4407258,130.1866 78.4407258,131.2166 L78.4407258,136.3666 L76.7203629,136.3666 C75.6881048,136.3666 75,137.053199 75,138.083199 L75,179.283199 C75,180.313199 75.6881048,180.999799 76.7203629,180.999799 L97.3655242,180.999799 L111.129032,180.999799 L152.419355,180.999799 L173.064516,180.999799 C174.096774,180.999799 174.784879,180.313199 174.784879,179.283199 L174.784879,98.6 C174.784677,97.57 174.096371,96.8834004 173.064113,96.8834004 Z" id="Path" fill="#C0DC76" transform="translate(124.892440, 129.499899) rotate(-45.000000) translate(-124.892440, -129.499899) "></path>
                <path d="M173.064113,96.8834004 L169.623185,96.8834004 L169.623185,91.7334004 C169.623185,90.7034004 168.935081,90.0168008 167.902823,90.0168008 L157.580242,90.0168008 C156.547984,90.0168008 155.859879,90.7034004 155.859879,91.7334004 L155.859879,96.8834004 L152.418952,96.8834004 C151.386694,96.8834004 150.698589,97.57 150.698589,98.6 L150.698589,126.0666 L148.978226,126.0666 L148.978226,120.9166 C148.978226,119.8866 148.290121,119.2 147.257863,119.2 L145.537298,119.2 L145.537298,117.4834 C145.537298,116.4534 144.849194,115.766801 143.816935,115.766801 C142.784677,115.766801 142.096573,116.4534 142.096573,117.4834 L142.096573,119.2 L140.376008,119.2 C139.34375,119.2 138.655645,119.8866 138.655645,120.9166 L138.655645,126.0666 L133.494355,126.0666 L133.494355,91.7334004 C133.494355,90.7034004 132.80625,90.0168008 131.773992,90.0168008 L126.612702,90.0168008 L126.612702,79.7168008 C126.6125,78.6865996 125.924395,78 124.892137,78 L104.246976,78 C103.214718,78 102.526613,78.6865996 102.526613,79.7165996 L102.526613,90.0165996 L97.3653226,90.0165996 C96.3330645,90.0165996 95.6449597,90.7031992 95.6449597,91.7331992 L95.6449597,136.3666 L92.2040323,136.3666 L92.2040323,131.2166 C92.2040323,130.1866 91.5159274,129.5 90.4836694,129.5 L80.1610887,129.5 C79.1288306,129.5 78.4407258,130.1866 78.4407258,131.2166 L78.4407258,136.3666 L76.7203629,136.3666 C75.6881048,136.3666 75,137.053199 75,138.083199 L75,179.283199 C75,180.313199 75.6881048,180.999799 76.7203629,180.999799 L97.3655242,180.999799 L111.129032,180.999799 L152.419355,180.999799 L173.064516,180.999799 C174.096774,180.999799 174.784879,180.313199 174.784879,179.283199 L174.784879,98.6 C174.784677,97.57 174.096371,96.8834004 173.064113,96.8834004 Z M159.300806,93.45 L166.18246,93.45 L166.18246,96.8834004 L159.300806,96.8834004 L159.300806,93.45 Z M142.096371,122.6334 L145.537298,122.6334 L145.537298,126.066801 L142.096371,126.066801 L142.096371,122.6334 Z M99.0856855,93.45 L104.246976,93.45 C105.279234,93.45 105.967339,92.7634004 105.967339,91.7334004 L105.967339,81.4334004 L123.171573,81.4334004 L123.171573,91.7334004 C123.171573,92.7634004 123.859677,93.45 124.891935,93.45 L130.053226,93.45 L130.053226,126.0666 L126.612298,126.0666 L126.612298,98.6 C126.612298,97.57 125.924194,96.8834004 124.891935,96.8834004 C123.859677,96.8834004 123.171573,97.57 123.171573,98.6 L123.171573,126.0666 L119.730847,126.0666 L119.730847,98.6 C119.730847,97.57 119.042742,96.8834004 118.010484,96.8834004 C116.978226,96.8834004 116.290121,97.57 116.290121,98.6 L116.290121,126.0666 L112.849194,126.0666 L112.849194,98.6 C112.849194,97.57 112.161089,96.8834004 111.128831,96.8834004 C110.096573,96.8834004 109.408266,97.57 109.408266,98.6 L109.408266,127.7834 L109.408266,136.366801 L105.967339,136.366801 L105.967339,98.6 C105.967339,97.57 105.279234,96.8834004 104.246976,96.8834004 C103.214718,96.8834004 102.526613,97.57 102.526613,98.6 L102.526613,136.3666 L99.0856855,136.366801 L99.0856855,93.45 Z M81.8814516,132.9334 L88.7631048,132.9334 L88.7631048,136.366801 L81.8814516,136.366801 L81.8814516,132.9334 Z M78.4405242,139.8 L80.1608871,139.8 L90.4834677,139.8 L97.365121,139.8 L109.408266,139.8 L109.408266,143.2334 L97.3653226,143.2334 C96.3330645,143.2334 95.6449597,143.92 95.6449597,144.95 L95.6449597,177.5666 L78.4405242,177.5666 L78.4405242,139.8 Z M99.0856855,146.6666 L109.408266,146.6666 L109.408266,150.1 L104.246976,150.1 C103.214718,150.1 102.526613,150.7866 102.526613,151.8166 C102.526613,152.8466 103.214718,153.533199 104.246976,153.533199 L109.408266,153.533199 L109.408266,156.9666 L104.246976,156.9666 C103.214718,156.9666 102.526613,157.653199 102.526613,158.683199 C102.526613,159.713199 103.214718,160.399799 104.246976,160.399799 L109.408266,160.399799 L109.408266,163.833199 L104.246976,163.833199 C103.214718,163.833199 102.526613,164.519799 102.526613,165.549799 C102.526613,166.579799 103.214718,167.266398 104.246976,167.266398 L109.408266,167.266398 L109.408266,170.7 L104.246976,170.7 C103.214718,170.7 102.526613,171.3866 102.526613,172.4166 C102.526613,173.4466 103.214718,174.133199 104.246976,174.133199 L109.408266,174.133199 L109.408266,177.5666 L99.0856855,177.5666 L99.0856855,146.6666 Z M112.849194,144.95 L112.849194,138.0834 L112.849194,129.5 L131.773992,129.5 L140.376008,129.5 L147.257661,129.5 L150.698589,129.5 L150.698589,177.5666 L147.257661,177.5666 L147.257661,134.65 C147.257661,133.62 146.569556,132.9334 145.537298,132.9334 C144.50504,132.9334 143.816935,133.62 143.816935,134.65 L143.816935,177.5666 L140.376008,177.5666 L140.376008,134.65 C140.376008,133.62 139.687903,132.9334 138.655645,132.9334 C137.623387,132.9334 136.935282,133.62 136.935282,134.65 L136.935282,177.5666 L133.494355,177.5666 L133.494355,134.65 C133.494355,133.62 132.80625,132.9334 131.773992,132.9334 C130.741734,132.9334 130.053629,133.62 130.053629,134.65 L130.053629,177.5666 L126.612702,177.5666 L126.612702,134.65 C126.612702,133.62 125.924597,132.9334 124.892339,132.9334 C123.860081,132.9334 123.171976,133.62 123.171976,134.65 L123.171976,177.5666 L119.730847,177.5666 L119.730847,134.65 C119.730847,133.62 119.042742,132.9334 118.010484,132.9334 C116.978226,132.9334 116.290121,133.62 116.290121,134.65 L116.290121,177.5666 L112.849194,177.5666 L112.849194,144.95 Z M171.34375,177.5666 L154.139516,177.5666 L154.139516,127.7834 L154.139516,100.3166 L157.580444,100.3166 L167.903024,100.3166 L171.34375,100.3166 L171.34375,177.5666 Z M159.300806,144.95 C158.268548,144.95 157.580444,145.6366 157.580444,146.6666 L157.580444,150.1 C157.580444,151.13 158.268548,151.8166 159.300806,151.8166 C160.333065,151.8166 161.021169,151.13 161.021169,150.1 L161.021169,146.6666 C161.021169,145.6366 160.333065,144.95 159.300806,144.95 Z M159.300806,155.25 C158.268548,155.25 157.580444,155.9366 157.580444,156.9666 L157.580444,160.4 C157.580444,161.43 158.268548,162.1166 159.300806,162.1166 C160.333065,162.1166 161.021169,161.43 161.021169,160.4 L161.021169,156.9666 C161.021169,155.9366 160.333065,155.25 159.300806,155.25 Z M159.300806,165.55 C158.268548,165.55 157.580444,166.2366 157.580444,167.2666 L157.580444,170.7 C157.580444,171.73 158.268548,172.4166 159.300806,172.4166 C160.333065,172.4166 161.021169,171.73 161.021169,170.7 L161.021169,167.2666 C161.021169,166.2366 160.333065,165.55 159.300806,165.55 Z M159.300806,134.65 C158.268548,134.65 157.580444,135.3366 157.580444,136.3666 L157.580444,139.8 C157.580444,140.83 158.268548,141.5166 159.300806,141.5166 C160.333065,141.5166 161.021169,140.83 161.021169,139.8 L161.021169,136.3666 C161.021169,135.3366 160.333065,134.65 159.300806,134.65 Z M159.300806,103.75 C158.268548,103.75 157.580444,104.4366 157.580444,105.4666 L157.580444,108.9 C157.580444,109.93 158.268548,110.6166 159.300806,110.6166 C160.333065,110.6166 161.021169,109.93 161.021169,108.9 L161.021169,105.4666 C161.021169,104.4366 160.333065,103.75 159.300806,103.75 Z M159.300806,114.05 C158.268548,114.05 157.580444,114.7366 157.580444,115.7666 L157.580444,119.2 C157.580444,120.23 158.268548,120.9166 159.300806,120.9166 C160.333065,120.9166 161.021169,120.23 161.021169,119.2 L161.021169,115.7666 C161.021169,114.7366 160.333065,114.05 159.300806,114.05 Z M159.300806,124.35 C158.268548,124.35 157.580444,125.0366 157.580444,126.0666 L157.580444,129.5 C157.580444,130.53 158.268548,131.2166 159.300806,131.2166 C160.333065,131.2166 161.021169,130.53 161.021169,129.5 L161.021169,126.0666 C161.021169,125.0366 160.333065,124.35 159.300806,124.35 Z M166.18246,144.95 C165.150202,144.95 164.462097,145.6366 164.462097,146.6666 L164.462097,150.1 C164.462097,151.13 165.150202,151.8166 166.18246,151.8166 C167.214718,151.8166 167.902823,151.13 167.902823,150.1 L167.902823,146.6666 C167.902823,145.6366 167.214718,144.95 166.18246,144.95 Z M166.18246,165.55 C165.150202,165.55 164.462097,166.2366 164.462097,167.2666 L164.462097,170.7 C164.462097,171.73 165.150202,172.4166 166.18246,172.4166 C167.214718,172.4166 167.902823,171.73 167.902823,170.7 L167.902823,167.2666 C167.902823,166.2366 167.214718,165.55 166.18246,165.55 Z M166.18246,114.05 C165.150202,114.05 164.462097,114.7366 164.462097,115.7666 L164.462097,119.2 C164.462097,120.23 165.150202,120.9166 166.18246,120.9166 C167.214718,120.9166 167.902823,120.23 167.902823,119.2 L167.902823,115.7666 C167.902823,114.7366 167.214718,114.05 166.18246,114.05 Z M166.18246,103.75 C165.150202,103.75 164.462097,104.4366 164.462097,105.4666 L164.462097,108.9 C164.462097,109.93 165.150202,110.6166 166.18246,110.6166 C167.214718,110.6166 167.902823,109.93 167.902823,108.9 L167.902823,105.4666 C167.902823,104.4366 167.214718,103.75 166.18246,103.75 Z M166.18246,134.65 C165.150202,134.65 164.462097,135.3366 164.462097,136.3666 L164.462097,139.8 C164.462097,140.83 165.150202,141.5166 166.18246,141.5166 C167.214718,141.5166 167.902823,140.83 167.902823,139.8 L167.902823,136.3666 C167.902823,135.3366 167.214718,134.65 166.18246,134.65 Z M166.18246,155.25 C165.150202,155.25 164.462097,155.9366 164.462097,156.9666 L164.462097,160.4 C164.462097,161.43 165.150202,162.1166 166.18246,162.1166 C167.214718,162.1166 167.902823,161.43 167.902823,160.4 L167.902823,156.9666 C167.902823,155.9366 167.214718,155.25 166.18246,155.25 Z M166.18246,124.35 C165.150202,124.35 164.462097,125.0366 164.462097,126.0666 L164.462097,129.5 C164.462097,130.53 165.150202,131.2166 166.18246,131.2166 C167.214718,131.2166 167.902823,130.53 167.902823,129.5 L167.902823,126.0666 C167.902823,125.0366 167.214718,124.35 166.18246,124.35 Z M83.6018145,163.8334 C84.6340726,163.8334 85.3221774,164.52 85.3221774,165.55 L85.3221774,168.9834 C85.3221774,170.0134 84.6340726,170.7 83.6018145,170.7 C82.5695565,170.7 81.8814516,170.0134 81.8814516,168.9834 L81.8814516,165.55 C81.8814516,164.52 82.5695565,163.8334 83.6018145,163.8334 Z M83.6018145,143.2334 C84.6340726,143.2334 85.3221774,143.92 85.3221774,144.95 L85.3221774,148.3834 C85.3221774,149.4134 84.6340726,150.1 83.6018145,150.1 C82.5695565,150.1 81.8814516,149.4134 81.8814516,148.3834 L81.8814516,144.95 C81.8814516,143.92 82.5695565,143.2334 83.6018145,143.2334 Z M83.6018145,153.5334 C84.6340726,153.5334 85.3221774,154.22 85.3221774,155.25 L85.3221774,158.6834 C85.3221774,159.7134 84.6340726,160.4 83.6018145,160.4 C82.5695565,160.4 81.8814516,159.7134 81.8814516,158.6834 L81.8814516,155.25 C81.8814516,154.22 82.5695565,153.5334 83.6018145,153.5334 Z M90.4834677,153.5334 C91.5157258,153.5334 92.2040323,154.22 92.2038306,155.25 L92.2038306,158.6834 C92.2038306,159.7134 91.5157258,160.4 90.4834677,160.4 C89.4512097,160.4 88.7631048,159.7134 88.7631048,158.6834 L88.7631048,155.25 C88.7631048,154.22 89.4512097,153.5334 90.4834677,153.5334 Z M90.4834677,163.8334 C91.5157258,163.8334 92.2040323,164.52 92.2038306,165.55 L92.2038306,168.9834 C92.2038306,170.0134 91.5157258,170.7 90.4834677,170.7 C89.4512097,170.7 88.7631048,170.0134 88.7631048,168.9834 L88.7631048,165.55 C88.7631048,164.52 89.4512097,163.8334 90.4834677,163.8334 Z M90.4834677,143.2334 C91.5157258,143.2334 92.2040323,143.92 92.2038306,144.95 L92.2038306,148.3834 C92.2038306,149.4134 91.5157258,150.1 90.4834677,150.1 C89.4512097,150.1 88.7631048,149.4134 88.7631048,148.3834 L88.7631048,144.95 C88.7631048,143.92 89.4512097,143.2334 90.4834677,143.2334 Z M111.128629,93.45 C110.096371,93.45 109.408266,92.7634004 109.408266,91.7334004 L109.408266,86.5834004 C109.408266,85.5534004 110.096371,84.8668008 111.128629,84.8668008 C112.160887,84.8668008 112.848992,85.5534004 112.848992,86.5834004 L112.848992,91.7334004 C112.848992,92.7634004 112.160887,93.45 111.128629,93.45 Z M118.010484,93.45 C116.978226,93.45 116.289919,92.7634004 116.290121,91.7334004 L116.290121,86.5834004 C116.290121,85.5534004 116.978226,84.8668008 118.010484,84.8668008 C119.042742,84.8668008 119.730847,85.5534004 119.730847,86.5834004 L119.730847,91.7334004 C119.730847,92.7634004 119.042742,93.45 118.010484,93.45 Z" id="Shape" fill="#467D30" fill-rule="nonzero" transform="translate(124.892440, 129.499899) rotate(-45.000000) translate(-124.892440, -129.499899) "></path>
                <path d="M122.211636,192.310345 L64.0298182,192.310345 C52.8298182,192.310345 43.6661818,183.131897 43.6661818,171.913793 C43.6661818,160.69569 52.8298182,151.517241 64.0298182,151.517241 L122.211636,151.517241 C133.411636,151.517241 142.575273,160.69569 142.575273,171.913793 C142.575273,183.131897 133.411636,192.310345 122.211636,192.310345 Z" id="Shape" fill="#FFE9D1" fill-rule="nonzero"></path>
                <g id="cityscape" transform="translate(127.000000, 118.500000) rotate(-45.000000) translate(-127.000000, -118.500000) translate(77.000000, 67.000000)"></g>
                <g id="Group" fill="#42120C" fill-rule="nonzero">
                    <path d="M108.201455,16.8358966 L95.3025455,3.91613793 C90.0894545,-1.30537931 81.6356364,-1.30537931 76.4283636,3.91613793 L4.78909091,75.6653793 C-0.424,80.8868966 -0.424,89.3543793 4.78909091,94.5758966 L17.688,107.495655 L108.201455,16.8358966 Z" id="Shape"></path>
                    <path d="M249.210909,158.079103 L229.848,138.684897 L139.340364,229.344655 L158.697455,248.733034 C163.910545,253.954552 172.364364,253.954552 177.571636,248.733034 L249.205091,176.983793 C254.424,171.768103 254.424,163.300621 249.210909,158.079103 Z" id="Shape"></path>
                </g>
                <ellipse id="Oval" fill="#FFFFFF" fill-rule="nonzero" cx="197.848" cy="195.224138" rx="11.6363636" ry="11.6551724"></ellipse>
                <path d="M49.4843636,64.1034483 C47.9949091,64.1034483 46.5054545,63.5323448 45.3709091,62.3959655 C43.096,60.1173793 43.096,56.4343448 45.3709091,54.1557586 L57.0072727,42.5005862 C59.2821818,40.222 62.9592727,40.222 65.2341818,42.5005862 C67.5090909,44.7791724 67.5090909,48.4622069 65.2341818,50.7407931 L53.5978182,62.3959655 C52.4632727,63.5323448 50.9738182,64.1034483 49.4843636,64.1034483 Z" id="Shape" fill="#FFFFFF" fill-rule="nonzero"></path>
            </g>
        </g>
    </g>
</svg>
