<svg width="60px" height="60px" viewBox="0 0 60 60" version="1.1" xmlns="http://www.w3.org/2000/svg" xmlns:xlink="http://www.w3.org/1999/xlink">
    <!-- Generator: Sketch 51.1 (57501) - http://www.bohemiancoding.com/sketch -->
    <desc>Created with Sketch.</desc>
    <defs></defs>
    <g id="Page-1" stroke="none" stroke-width="1" fill="none" fill-rule="evenodd">
        <g id="Landing-du" transform="translate(-1000.000000, -769.000000)">
            <g id="Group-16" transform="translate(850.000000, 759.000000)">
                <g id="Group-11" transform="translate(140.000000, 0.000000)">
                    <rect id="Rectangle-8-Copy-3" x="0" y="0" width="80" height="80"></rect>
                    <path d="M60.0000391,25.9999609 L19.9999609,25.9999609 C19.4480078,25.9999609 19,26.4469141 19,26.9999219 L19,68.9999219 C19,69.5529297 19.4480078,69.9998828 19.9999609,69.9998828 L59.9999219,69.9998828 C60.551875,69.9998828 60.9998828,69.5529297 60.9998828,68.9999219 L60.9998828,26.9999219 C61,26.4470312 60.5519922,25.9999609 60.0000391,25.9999609 Z M59.0000781,67.9999609 L21.0000391,67.9999609 L21.0000391,28 L59.0000781,28 L59.0000781,67.9999609 Z M61.9999609,18.0000391 L18.0000391,18.0000391 C17.4480859,18.0000391 17.0000781,18.4469922 17.0000781,19 L17.0000781,27.0000391 C17.0000781,27.5530469 17.4480859,28 18.0000391,28 L62.0000781,28 C62.5520313,28 63.0000391,27.5530469 63.0000391,27.0000391 L63.0000391,19 C63.0000391,18.4469922 62.5520313,18.0000391 61.9999609,18.0000391 Z M61,25.9999609 L19,25.9999609 L19,19.9999609 L61,19.9999609 L61,25.9999609 Z M55.9999609,13.9999609 L24.0000391,13.9999609 C21.2429687,13.9999609 19,16.2430469 19,19 C19,19.5530078 19.4480078,19.9999609 19.9999609,19.9999609 L59.9999219,19.9999609 C60.551875,19.9999609 60.9998828,19.5530078 60.9998828,19 C61,16.2430469 58.7570313,13.9999609 55.9999609,13.9999609 Z M21.1710156,18.0000391 C21.5839844,16.8360156 22.6959766,16 24.0000391,16 L56.0000781,16 C57.3041406,16 58.4161328,16.8360156 58.8280469,18.0000391 L21.1710156,18.0000391 Z M49.9999609,10 L30.0000391,10 C29.4480859,10 29.0000781,10.4469531 29.0000781,10.9999609 L29.0000781,14.9999219 C29.0000781,15.5529297 29.4480859,15.9998828 30.0000391,15.9998828 L50.0000781,15.9998828 C50.5520313,15.9998828 51.0000391,15.5529297 51.0000391,14.9999219 L51.0000391,10.9999609 C51.0000391,10.4469531 50.5520313,10 49.9999609,10 Z M49,13.9999609 L31,13.9999609 L31,12.0000391 L49,12.0000391 L49,13.9999609 Z M28,31 C25.7939453,31 24.0000391,32.7940234 24.0000391,34.9999609 L24.0000391,61 C24.0000391,63.2060547 25.7940625,64.9999609 28,64.9999609 C30.2060547,64.9999609 31.9999609,63.2059375 31.9999609,61 L31.9999609,34.9999609 C31.9999609,32.7940234 30.2060547,31 28,31 Z M30.0000391,61 C30.0000391,62.1029688 29.1030859,63.0000391 28,63.0000391 C26.8970313,63.0000391 25.9999609,62.1030859 25.9999609,61 L25.9999609,34.9999609 C25.9999609,33.8969922 26.8969141,32.9999219 28,32.9999219 C29.1029688,32.9999219 30.0000391,33.896875 30.0000391,34.9999609 L30.0000391,61 Z M52,31 C49.7939453,31 48.0000391,32.7940234 48.0000391,34.9999609 L48.0000391,61 C48.0000391,63.2060547 49.7940625,64.9999609 52,64.9999609 C54.2059375,64.9999609 55.9999609,63.2059375 55.9999609,61 L55.9999609,34.9999609 C55.9999609,32.7940234 54.2060547,31 52,31 Z M54.0000391,61 C54.0000391,62.1029688 53.1030859,63.0000391 52,63.0000391 C50.8969141,63.0000391 49.9999609,62.1030859 49.9999609,61 L49.9999609,34.9999609 C49.9999609,33.8969922 50.8969141,32.9999219 52,32.9999219 C53.1030859,32.9999219 54.0000391,33.896875 54.0000391,34.9999609 L54.0000391,61 Z M40,31 C37.7939453,31 36.0000391,32.7940234 36.0000391,34.9999609 L36.0000391,61 C36.0000391,63.2060547 37.7940625,64.9999609 40,64.9999609 C42.2060547,64.9999609 43.9999609,63.2059375 43.9999609,61 L43.9999609,34.9999609 C43.9999609,32.7940234 42.2060547,31 40,31 Z M42.0000391,61 C42.0000391,62.1029688 41.1030859,63.0000391 40,63.0000391 C38.8970313,63.0000391 37.9999609,62.1030859 37.9999609,61 L37.9999609,34.9999609 C37.9999609,33.8969922 38.8969141,32.9999219 40,32.9999219 C41.1029688,32.9999219 42.0000391,33.896875 42.0000391,34.9999609 L42.0000391,61 Z M52.9999609,22 C53.5520313,22 54.0000391,22.4469531 54.0000391,22.9999609 C54.0000391,23.5529688 53.5520313,23.9999219 53.0000781,23.9999219 L18.0000391,23.9999219 C17.4480859,23.9999219 17.0000781,23.5529688 17.0000781,22.9999609 C17.0000781,22.4469531 17.4480859,22 18.0000391,22 L52.9999609,22 Z M61.9999609,22 C62.5520313,22 62.9999219,22.4469531 62.9999219,22.9999609 C62.9999219,23.5529688 62.5519141,23.9999219 61.9999609,23.9999219 L56.9999219,23.9999219 C56.4479688,23.9999219 55.9999609,23.5529688 55.9999609,22.9999609 C55.9999609,22.4469531 56.4479688,22 56.9999219,22 L61.9999609,22 Z M15.0000391,67.9999609 C15.5519922,67.9999609 16,68.4470312 15.9998828,69.0000391 C15.9998828,69.5530469 15.551875,70 14.9999219,70 L10.9999609,70 C10.4480078,70 10,69.5530469 10,68.9999219 C10,68.4469141 10.4480078,67.9999609 10.9999609,67.9999609 L15.0000391,67.9999609 Z M69.0000391,67.9999609 C69.5519922,67.9999609 70,68.4470312 70,68.9999219 C70,69.5529297 69.5519922,69.9998828 69.0000391,69.9998828 L60.0000391,69.9998828 C59.4480859,69.9998828 59.0000781,69.5529297 59.0000781,68.9999219 C59.0000781,68.4469141 59.4480859,67.9999609 60.0000391,67.9999609 L69.0000391,67.9999609 Z" id="Shape" fill="#86A438" fill-rule="nonzero" opacity="0.5"></path>
                </g>
            </g>
        </g>
    </g>
</svg>
