
<svg width="48px" height="60px" viewBox="0 0 48 60" version="1.1" xmlns="http://www.w3.org/2000/svg" xmlns:xlink="http://www.w3.org/1999/xlink">
    <!-- Generator: Sketch 51.1 (57501) - http://www.bohemiancoding.com/sketch -->
    <desc>Created with Sketch.</desc>
    <defs></defs>
    <g id="Page-1" stroke="none" stroke-width="1" fill="none" fill-rule="evenodd">
        <g id="Group-13" transform="translate(-16.000000, -10.000000)">
            <rect id="Rectangle-8-Copy" x="0" y="0" width="80" height="80"></rect>
            <path d="M62.7504443,34.7496484 L60.1635303,31.2573438 C59.5836865,30.4745313 58.6559131,30.0071875 57.6817334,30.0071875 L43.1578662,30.0071875 L43.1578662,27.7188672 L44.4993115,27.7188672 C45.1464209,27.7188672 45.6711865,27.1942188 45.6711865,26.5469922 L45.6711865,15.8355859 C45.6711865,15.1883594 45.1464209,14.6637109 44.4993115,14.6637109 L43.1578662,14.6637109 L43.1578662,13.2216016 C43.1578662,11.4452734 41.7125928,10 39.9362646,10 C38.1599365,10 36.7146631,11.4452734 36.7146631,13.2216016 L36.7146631,14.6638281 L21.6616943,14.6638281 C20.6875146,14.6638281 19.7598584,15.1311719 19.1798975,15.9139844 L16.5929834,19.4062891 C15.8023193,20.4739844 15.8023193,21.9087109 16.5931006,22.9764063 L19.1800146,26.4687109 C19.7598584,27.2515234 20.6876318,27.71875 21.6618115,27.71875 L36.7146631,27.71875 L36.7146631,30.0070703 L34.8442334,30.0070703 C34.197124,30.0070703 33.6723584,30.5317187 33.6723584,31.1789453 L33.6723584,41.8903516 C33.6723584,42.5375781 34.197124,43.0622266 34.8442334,43.0622266 L36.7146631,43.0622266 L36.7146631,62.7677734 C35.0736865,63.8011328 33.9605225,65.5977344 33.8777881,67.65625 L29.4232568,67.65625 C28.7761475,67.65625 28.2513818,68.1808984 28.2513818,68.828125 C28.2513818,69.4753516 28.7761475,70 29.4232568,70 L35.0434521,70 L44.8290771,70 L49.9202881,70 C50.5673975,70 51.0921631,69.4753516 51.0921631,68.828125 C51.0921631,68.1808984 50.5673975,67.65625 49.9202881,67.65625 L45.994624,67.65625 C45.9118896,65.5978516 44.7987256,63.8011328 43.157749,62.7677734 L43.157749,43.0623438 L57.6817334,43.0623438 C58.6559131,43.0623438 59.5835693,42.595 60.1635303,41.8121875 L62.7505615,38.3198828 C63.5413428,37.2521875 63.5413428,35.8174609 62.7504443,34.7496484 Z M39.9362646,12.34375 C40.4203662,12.34375 40.8141162,12.7375 40.8141162,13.2216016 L40.8141162,14.6638281 L39.0584131,14.6638281 L39.0584131,13.2216016 C39.0584131,12.7376172 39.4521631,12.34375 39.9362646,12.34375 Z M21.6616943,25.3752344 C21.4267334,25.3751172 21.2030225,25.2623828 21.0632178,25.0737109 L18.4764209,21.5815234 C18.3035693,21.3482031 18.3035693,21.0346094 18.4763037,20.8012891 L21.0632178,17.3091016 C21.2030225,17.1203125 21.4268506,17.0075781 21.6616943,17.0075781 L43.3274365,17.0075781 L43.3274365,25.3752344 L21.6616943,25.3752344 Z M39.0584131,27.7188672 L40.8141162,27.7188672 L40.8141162,30.0071875 L39.0584131,30.0071875 L39.0584131,27.7188672 Z M43.6491162,67.65625 L36.2232959,67.65625 C36.3505615,65.7189063 37.9672803,64.1815234 39.9362646,64.1815234 C41.905249,64.1815234 43.5218506,65.7189063 43.6491162,67.65625 Z M39.0584131,61.9021094 L39.0584131,43.0623437 L40.8141162,43.0623437 L40.8141162,61.9021094 C40.5273584,61.8603906 40.2343896,61.8377734 39.9362646,61.8377734 C39.6381396,61.8377734 39.3451709,61.8603906 39.0584131,61.9021094 Z M60.8672412,36.9248828 L58.2803271,40.4170703 C58.1405225,40.6058594 57.9166943,40.7185937 57.6818506,40.7185937 L36.0161084,40.7185937 L36.0161084,32.3509375 L57.6818506,32.3509375 C57.9168115,32.3509375 58.1405225,32.4636719 58.2803271,32.6524609 L60.867124,36.1446484 C61.0399756,36.3779688 61.0399756,36.6915625 60.8672412,36.9248828 Z M41.295874,22.0714844 C41.3112256,22.1464844 41.3193115,22.2238281 41.3193115,22.3 C41.3193115,22.3773437 41.3112256,22.4535156 41.295874,22.5296875 C41.2806396,22.6046875 41.2584912,22.6773437 41.2291943,22.7488281 C41.1998975,22.8191406 41.1634521,22.8871094 41.1213818,22.9503906 C41.0791943,23.0148437 41.0299756,23.0746094 40.9760693,23.1285156 C40.9221631,23.1824219 40.8611084,23.2316406 40.7978271,23.275 C40.7334912,23.3171875 40.6654053,23.3535156 40.59521,23.3828125 C40.5250146,23.4121094 40.4510693,23.434375 40.3760693,23.4496094 C40.3011865,23.4648437 40.2237256,23.471875 40.1475537,23.471875 C40.07021,23.471875 39.9940381,23.4648437 39.9178662,23.4496094 C39.8428662,23.434375 39.7691553,23.4121094 39.6987256,23.3828125 C39.6284131,23.3535156 39.5604443,23.3171875 39.4971631,23.275 C39.43271,23.2316406 39.3729443,23.1824219 39.3190381,23.1285156 C39.2638428,23.0746094 39.2157959,23.0148437 39.1725537,22.9503906 C39.1303662,22.8871094 39.0939209,22.8191406 39.064624,22.7488281 C39.0353271,22.6773437 39.0131787,22.6046875 38.9979443,22.5296875 C38.9828271,22.4535156 38.9756787,22.3773437 38.9756787,22.3 C38.9756787,22.2238281 38.98271,22.1464844 38.9979443,22.0714844 C39.0131787,21.9964844 39.0353271,21.9226562 39.064624,21.8523437 C39.0939209,21.7808594 39.1303662,21.7128906 39.1725537,21.6496094 C39.2157959,21.5851562 39.2638428,21.5253906 39.3190381,21.4714844 C39.3729443,21.4175781 39.43271,21.3683594 39.4971631,21.3261719 C39.5604443,21.2839844 39.6284131,21.2476562 39.6987256,21.2183594 C39.7690381,21.1890625 39.8428662,21.1667969 39.9178662,21.1515625 C40.2987256,21.0742187 40.7030225,21.1996094 40.9760693,21.4714844 C41.0299756,21.5253906 41.0791943,21.5851562 41.1213818,21.6496094 C41.1634521,21.7128906 41.1998975,21.7808594 41.2291943,21.8523437 C41.2584912,21.9226562 41.2806396,21.9964844 41.295874,22.0714844 Z M35.4597021,21.1284766 C36.1068115,21.1284766 36.6315771,21.653125 36.6315771,22.3003516 C36.6315771,22.9475781 36.1068115,23.4722266 35.4597021,23.4722266 L26.2935303,23.4722266 C25.6464209,23.4722266 25.1216553,22.9475781 25.1216553,22.3003516 C25.1216553,21.653125 25.6464209,21.1284766 26.2935303,21.1284766 L35.4597021,21.1284766 Z" id="Shape" fill="#86A438" fill-rule="nonzero" opacity="0.5"></path>
        </g>
    </g>
</svg>