<svg width="150px" height="95px" viewBox="0 0 150 95" version="1.1" xmlns="http://www.w3.org/2000/svg" xmlns:xlink="http://www.w3.org/1999/xlink">
    <!-- Generator: Sketch 51.1 (57501) - http://www.bohemiancoding.com/sketch -->
    <desc>Created with Sketch.</desc>
    <defs></defs>
    <g id="Page-1" stroke="none" stroke-width="1" fill="none" fill-rule="evenodd">
        <g id="Landing-du" transform="translate(-566.000000, -711.000000)" fill="#42120C" fill-rule="nonzero">
            <path d="M662.438204,774.065844 L650.474377,769.301331 C649.704915,768.995022 649.207733,768.263797 649.207733,767.438624 L649.207733,763.830841 C650.026343,763.370889 650.809371,762.844587 651.545216,762.252326 C654.541088,759.841591 656.657798,756.465154 657.505701,752.745416 C657.788204,751.505895 657.93152,750.227621 657.93152,748.946019 C657.93152,740.39581 651.710747,739.166271 645.69502,737.977247 C641.847706,737.216858 637.869463,736.430439 634.696265,733.903248 C634.349083,733.62669 633.894561,733.521782 633.460485,733.616317 C633.026212,733.710656 632.657405,733.995826 632.457274,734.391189 C632.449017,734.407434 631.622936,736.026464 630.225754,737.603022 C629.042464,738.938252 627.184076,740.529881 625.051245,740.529881 C624.334076,740.529881 623.65249,740.683329 623.036173,740.957147 L623.036173,738.523708 C623.036173,728.797197 630.984404,720.884069 640.754063,720.884069 C650.523722,720.884069 658.471953,728.797197 658.471953,738.523708 L658.471953,741.997812 C658.471953,742.808501 659.13211,743.465743 659.946396,743.465743 C660.760682,743.465743 661.420839,742.808501 661.420839,741.997812 L661.420839,738.523708 C661.420839,730.828226 657.154784,724.107255 650.853997,720.578348 C650.91789,720.194338 650.952294,719.806021 650.952294,719.416138 C650.952294,714.775519 646.377392,711 640.754063,711 C635.130734,711 630.555832,714.775519 630.555832,719.416138 C630.555832,719.806217 630.589843,720.194533 630.653932,720.578544 C624.353342,724.10745 620.087287,730.828422 620.087287,738.523708 L620.087287,745.471916 C620.087287,747.702779 621.579817,749.593279 623.623001,750.205504 C623.685911,751.062384 623.812713,751.91261 624.002621,752.745416 C624.850524,756.465154 626.967431,759.841591 629.963106,762.252326 C630.698952,762.844587 631.481979,763.370889 632.30059,763.830841 L632.30059,767.438624 C632.30059,768.263797 631.803408,768.994827 631.033945,769.301331 L619.070315,774.065648 C616.508519,775.085762 614.853211,777.519983 614.853211,780.266972 L614.853211,788.89919 C614.853211,789.288681 615.008716,789.662122 615.285321,789.937506 C615.56173,790.212694 615.936632,790.367121 616.327654,790.367121 C616.327851,790.367121 616.328047,790.367121 616.32844,790.367121 L616.597969,790.367121 L616.597969,804.531873 C616.597969,805.342563 617.258126,805.999804 618.072412,805.999804 C618.886697,805.999804 619.546855,805.342563 619.546855,804.531873 L619.546855,790.366338 L623.576999,790.366338 L623.576999,804.531873 C623.576999,805.342563 624.237156,805.999804 625.051442,805.999804 C625.865727,805.999804 626.525885,805.342563 626.525885,804.531873 L626.525885,785.424303 C626.525885,784.613614 625.865727,783.956372 625.051442,783.956372 C624.237156,783.956372 623.576999,784.613614 623.576999,785.424303 L623.576999,787.430476 L618.072412,787.430476 C618.072215,787.430476 618.072018,787.430476 618.071625,787.430476 L617.802097,787.430476 L617.802097,780.266972 C617.802097,778.727406 618.729817,777.363208 620.165531,776.791498 L629.469463,773.08644 C630.704456,775.170119 634.209895,780.333714 640.094692,783.263117 C640.302294,783.366459 640.528178,783.418131 640.754063,783.418131 C640.979948,783.418131 641.205832,783.366459 641.413434,783.263117 C647.298231,780.333714 650.803866,775.170119 652.038663,773.08644 L661.342792,776.791694 C662.778506,777.363404 663.706225,778.727797 663.706225,780.267168 L663.706225,787.430671 L663.435911,787.430671 L657.931324,787.430671 L657.931324,785.424499 C657.931324,784.613809 657.271166,783.956568 656.456881,783.956568 C655.642595,783.956568 654.982438,784.613809 654.982438,785.424499 L654.982438,804.532069 C654.982438,805.342758 655.642595,806 656.456881,806 C657.271166,806 657.931324,805.342758 657.931324,804.532069 L657.931324,790.366534 L661.961468,790.366534 L661.961468,804.532069 C661.961468,805.342758 662.621625,806 663.435911,806 C664.250197,806 664.910354,805.342758 664.910354,804.532069 L664.910354,790.366534 L665.180668,790.366534 C665.994954,790.366534 666.655111,789.709292 666.655111,788.898603 L666.655111,780.267168 C666.655308,777.520375 665,775.086154 662.438204,774.065844 Z M640.75426,713.936254 C644.67962,713.936254 647.883879,716.307256 647.9981,719.254275 C645.742595,718.411095 643.3019,717.948599 640.75426,717.948599 C638.206619,717.948599 635.765727,718.411095 633.510419,719.254275 C633.62464,716.307256 636.828899,713.936254 640.75426,713.936254 Z M631.816972,759.969595 C629.334207,757.971447 627.580406,755.175332 626.878375,752.096004 C626.64443,751.069431 626.525885,750.009584 626.525885,748.946411 C626.525885,748.135721 625.865727,747.47848 625.051442,747.47848 C623.940301,747.47848 623.03637,746.57854 623.03637,745.472307 C623.03637,744.366074 623.940301,743.466135 625.051442,743.466135 C629.522543,743.466135 632.765531,739.435391 634.229948,737.180258 C637.668545,739.384307 641.601376,740.161724 645.120773,740.857523 C651.601048,742.138342 654.982634,743.079775 654.982634,748.946606 C654.982634,750.009976 654.863893,751.069626 654.630144,752.096199 C653.928309,755.175527 652.174312,757.971643 649.691547,759.969595 C647.136828,762.025481 644.046396,763.112142 640.75426,763.112142 C637.462123,763.112142 634.371691,762.025481 631.816972,759.969595 Z M640.75426,780.292025 C636.305767,777.845668 633.444364,773.887148 632.247313,771.975314 C634.074443,771.193396 635.249672,769.428356 635.249672,767.43882 L635.249672,765.14004 C637.013106,765.733867 638.873263,766.047808 640.75426,766.047808 C642.635256,766.047808 644.495413,765.733867 646.258847,765.14004 L646.258847,767.43882 C646.258847,769.428356 647.434076,771.1932 649.261206,771.975118 C648.063565,773.88793 645.202163,777.84606 640.75426,780.292025 Z M598.06422,744.33241 C598.696658,744.843054 598.793381,745.767459 598.280472,746.397104 C597.099738,747.84605 595.410616,748.67729 593.645806,748.67729 C591.880996,748.67729 590.191874,747.84605 589.011533,746.397104 C588.498624,745.767459 588.595347,744.843054 589.227785,744.33241 C589.860223,743.821765 590.788925,743.918062 591.301638,744.547706 C591.928768,745.317685 592.761337,745.741624 593.646003,745.741624 C594.530668,745.741624 595.363237,745.317685 595.990367,744.547706 C596.503277,743.918062 597.431782,743.82157 598.06422,744.33241 Z M586.666776,735.319117 C587.481062,735.319117 588.141219,735.976359 588.141219,736.787048 L588.141219,738.5241 C588.141219,739.334789 587.481062,739.992031 586.666776,739.992031 C585.85249,739.992031 585.192333,739.334789 585.192333,738.5241 L585.192333,736.787048 C585.192333,735.976359 585.85249,735.319117 586.666776,735.319117 Z M600.624836,735.319117 C601.439122,735.319117 602.099279,735.976359 602.099279,736.787048 L602.099279,738.5241 C602.099279,739.334789 601.439122,739.992031 600.624836,739.992031 C599.81055,739.992031 599.150393,739.334789 599.150393,738.5241 L599.150393,736.787048 C599.150393,735.976359 599.81055,735.319117 600.624836,735.319117 Z M579.26173,776.082585 C579.364155,776.286334 579.417431,776.511025 579.417431,776.739044 L579.417431,804.531873 C579.417431,805.342563 578.757274,805.999804 577.942988,805.999804 C577.128702,805.999804 576.468545,805.342563 576.468545,804.531873 L576.468545,777.085672 L573.134731,770.447296 C572.770446,769.722138 573.065727,768.8404 573.794102,768.477919 C574.522477,768.115242 575.408126,768.40922 575.772215,769.134378 L579.26173,776.082585 Z M613.49751,768.477919 C614.225885,768.840596 614.521166,769.722333 614.156881,770.447296 L610.823067,777.085672 L610.823067,804.531873 C610.823067,805.342563 610.16291,805.999804 609.348624,805.999804 C608.534338,805.999804 607.874181,805.342563 607.874181,804.531873 L607.874181,776.739044 C607.874181,776.511025 607.927457,776.28653 608.029882,776.082585 L611.519397,769.134378 C611.883486,768.40922 612.769135,768.115242 613.49751,768.477919 Z M645.172674,753.017473 C645.805111,753.528117 645.901835,754.452522 645.388925,755.082167 C644.208191,756.531309 642.519463,757.362353 640.754653,757.362353 C638.989843,757.362353 637.300524,756.531309 636.119987,755.082167 C635.607077,754.452522 635.703801,753.528117 636.336239,753.017473 C636.968676,752.506829 637.897379,752.603125 638.410092,753.23277 C639.037221,754.002748 639.86979,754.426687 640.754456,754.426687 C641.639122,754.426687 642.471691,754.002748 643.09882,753.23277 C643.61173,752.603125 644.540236,752.506633 645.172674,753.017473 Z M633.775229,744.004376 C634.589515,744.004376 635.249672,744.661422 635.249672,745.472307 L635.249672,747.209359 C635.249672,748.020048 634.589515,748.67729 633.775229,748.67729 C632.960944,748.67729 632.300786,748.020048 632.300786,747.209359 L632.300786,745.472307 C632.300786,744.661618 632.960944,744.004376 633.775229,744.004376 Z M647.73329,744.004376 C648.547575,744.004376 649.207733,744.661618 649.207733,745.472307 L649.207733,747.209359 C649.207733,748.020048 648.547575,748.67729 647.73329,748.67729 C646.919004,748.67729 646.258847,748.020048 646.258847,747.209359 L646.258847,745.472307 C646.258847,744.661618 646.919004,744.004376 647.73329,744.004376 Z M616.510682,762.059733 L606.936828,759.200399 L605.341088,756.817457 C605.109109,756.47083 604.739908,756.238701 604.325885,756.179005 C604.163893,756.155518 604.001311,756.160216 603.84384,756.189379 L603.84384,754.008816 C607.755046,751.125408 610.40118,746.633147 610.776868,741.520637 C612.819856,740.908411 614.312385,739.017912 614.312385,736.787048 C614.312385,735.342995 613.660485,733.974296 612.567628,733.043824 L612.567628,722.890633 C612.567628,720.107045 611.151573,717.503326 608.830799,715.943013 C608.055242,713.040816 605.440564,711.000391 602.369594,711.000391 L588.411533,711.000391 C580.863958,711.000391 574.723788,717.113444 574.723788,724.627685 L574.723788,733.043824 C573.630931,733.974296 572.97903,735.3428 572.97903,736.787048 C572.97903,739.017912 574.47156,740.908411 576.514548,741.520637 C576.890236,746.633147 579.536173,751.125408 583.447575,754.008816 L583.447575,756.189183 C583.290105,756.159824 583.127523,756.155127 582.965531,756.178809 C582.551507,756.238701 582.182503,756.470634 581.950328,756.817262 L580.354587,759.200203 L570.780734,762.059537 C567.921298,762.913873 566,765.48471 566,768.457172 L566,804.532069 C566,805.342758 566.660157,806 567.474443,806 C568.288729,806 568.948886,805.342758 568.948886,804.532069 L568.948886,768.457172 C568.948886,766.791364 570.025819,765.350443 571.62844,764.871702 L578.214679,762.904478 C578.227457,763.209025 578.335387,763.509657 578.536304,763.759597 L584.458847,771.130177 C585.096789,771.924034 586.027064,772.338382 586.969528,772.338382 C587.642071,772.338382 588.321101,772.127196 588.903997,771.691905 L592.171166,769.2524 L592.171166,804.531677 C592.171166,805.342367 592.831324,805.999609 593.645609,805.999609 C594.459895,805.999609 595.120052,805.342367 595.120052,804.531677 L595.120052,769.2524 L598.387221,771.691905 C598.970118,772.127196 599.648952,772.338382 600.321691,772.338382 C601.264155,772.338382 602.194626,771.923839 602.832372,771.130177 L608.754915,763.759597 C608.956225,763.509657 609.063958,763.209025 609.076933,762.904478 L615.663172,764.871702 C617.265793,765.350443 618.342726,766.791364 618.342726,768.457172 C618.342726,769.267862 619.002883,769.925104 619.817169,769.925104 C620.631455,769.925104 621.291612,769.267862 621.291612,768.457172 C621.291612,765.48471 619.370315,762.913873 616.510682,762.059733 Z M579.417431,740.261152 C579.417431,739.450462 578.757274,738.793221 577.942988,738.793221 C576.831848,738.793221 575.927916,737.893281 575.927916,736.787048 C575.927916,736.075004 576.30616,735.43068 576.939777,735.063501 C576.972412,735.044516 577.002097,735.022203 577.032962,735.001065 C577.313499,734.859165 577.624705,734.780875 577.942988,734.780875 L580.002097,734.780875 C581.531389,734.780875 582.858978,733.697347 583.158781,732.204559 L584.231586,726.864812 C584.246527,726.790241 584.285649,726.733481 584.347575,726.696098 C584.39633,726.666739 584.47713,726.638751 584.585256,726.670262 C587.20426,727.430847 590.337353,727.832668 593.645806,727.832668 C597.891415,727.832668 601.810878,727.175622 604.682307,725.982292 C605.433683,725.669916 605.788532,724.810296 605.474967,724.062042 C605.161206,723.313985 604.297969,722.960898 603.546199,723.272883 C601.063041,724.30474 597.454391,724.89661 593.645609,724.89661 C590.656029,724.89661 587.73152,724.525517 585.410944,723.851639 C584.536304,723.597785 583.591678,723.719134 582.819266,724.185153 C582.054915,724.646279 581.515662,725.413126 581.339712,726.289188 L580.266907,731.628738 C580.241743,731.754002 580.130275,731.845013 580.0019,731.845013 L577.942988,731.845013 C577.852752,731.845013 577.762713,731.848928 577.672674,731.853821 L577.672674,724.627685 C577.672674,718.732474 582.49017,713.936254 588.411533,713.936254 L602.369594,713.936254 C604.219135,713.936254 605.773198,715.263263 606.064744,717.091523 C606.135321,717.533859 606.404849,717.920023 606.796658,718.140017 C608.537484,719.117463 609.618742,720.937698 609.618742,722.890633 L609.618742,733.794817 C609.618742,734.317401 609.897903,734.800644 610.351638,735.063501 C610.985256,735.43068 611.363499,736.075004 611.363499,736.787048 C611.363499,737.893281 610.459567,738.793221 609.348427,738.793221 C608.534142,738.793221 607.873984,739.450462 607.873984,740.261152 C607.873984,748.072111 601.491219,754.426687 593.645609,754.426687 C585.8,754.426687 579.417431,748.071915 579.417431,740.261152 Z M587.134862,769.343411 C587.0173,769.431292 586.853539,769.410349 586.76173,769.296242 L581.512516,762.763753 L583.493775,759.804991 L591.269594,766.256059 L587.134862,769.343411 Z M593.645806,764.406074 L586.396461,758.391667 L586.396461,755.761134 C588.600459,756.786924 591.056488,757.362549 593.645806,757.362549 C596.235125,757.362549 598.691153,756.78712 600.895151,755.761134 L600.895151,758.391667 L593.645806,764.406074 Z M600.529882,769.296242 C600.438073,769.410545 600.274312,769.431096 600.15675,769.343411 L596.022018,766.256254 L603.797837,759.805186 L605.779096,762.763948 L600.529882,769.296242 Z M588.42903,780.482464 C589.243316,780.482464 589.903277,781.139706 589.903277,781.950395 C589.903277,782.761085 589.243119,783.418326 588.428834,783.418326 C587.614548,783.418326 586.94574,782.761085 586.94574,781.950395 C586.94574,781.139706 587.597248,780.482464 588.411533,780.482464 L588.42903,780.482464 Z M588.42903,794.378879 C589.243316,794.378879 589.903277,795.03612 589.903277,795.84681 C589.903277,796.657499 589.243119,797.314741 588.428834,797.314741 C587.614548,797.314741 586.94574,796.657499 586.94574,795.84681 C586.94574,795.03612 587.597248,794.378879 588.411533,794.378879 L588.42903,794.378879 Z M588.42903,787.430671 C589.243316,787.430671 589.903277,788.087913 589.903277,788.898603 C589.903277,789.709292 589.243119,790.366534 588.428834,790.366534 C587.614548,790.366534 586.94574,789.709292 586.94574,788.898603 C586.94574,788.087913 587.597248,787.430671 588.411533,787.430671 L588.42903,787.430671 Z M665.862451,761.919399 L675.51671,759.004675 L676.566907,756.913558 C676.894233,756.261601 677.642661,755.95999 678.319725,756.168828 L678.319725,755.804976 C674.321822,752.929593 671.60865,748.38801 671.223919,743.209736 C669.350393,742.688523 667.876147,741.171856 667.567497,739.281161 C667.372674,738.088614 667.627064,736.914464 668.209371,735.938584 C666.345675,734.967205 665.070183,733.023664 665.070183,730.788299 C665.070183,728.760988 666.149279,726.913743 667.827195,725.873078 C667.7346,725.494156 667.687221,725.103686 667.687221,724.708715 C667.687221,721.983648 669.914024,719.76668 672.65118,719.76668 C673.307798,719.76668 673.934535,719.895467 674.508585,720.127008 C677.349934,717.55715 680.988073,716.149894 684.864482,716.149894 L691.843512,716.149894 C695.702818,716.149894 699.356094,717.559499 702.199803,720.126813 C702.773853,719.895271 703.400393,719.76668 704.056815,719.76668 C706.793971,719.76668 709.020773,721.983648 709.020773,724.708715 C709.020773,725.103882 708.973394,725.494352 708.880799,725.873078 C710.558912,726.913743 711.637811,728.760988 711.637811,730.788299 C711.637811,733.02249 710.363893,734.964856 708.502163,735.936822 C709.083093,736.909376 709.336107,738.083133 709.140498,739.281161 C708.831848,741.171856 707.357602,742.688523 705.484076,743.209736 C705.100131,748.380964 702.393644,752.916871 698.404784,755.792841 L698.404784,756.163347 C699.077523,755.964492 699.816514,756.266885 700.141284,756.913362 L701.190695,759.002717 L711.218873,761.997884 C714.078702,762.85222 716,765.423252 716,768.395715 L716,804.470612 C716,805.281301 715.339843,805.938543 714.525557,805.938543 C713.711271,805.938543 713.051114,805.281301 713.051114,804.470612 L713.051114,768.395715 C713.051114,768.288067 713.046199,768.181593 713.037353,768.075902 L707.143709,773.943516 C706.103932,774.978701 705.531455,776.354838 705.531455,777.818658 L705.531455,804.470416 C705.531455,805.281105 704.871298,805.938347 704.057012,805.938347 C703.242726,805.938347 702.582569,805.281105 702.582569,804.470416 L702.582569,777.818658 C702.582569,775.570571 703.461927,773.457142 705.05865,771.86747 L711.551704,765.403093 C711.204128,765.144737 710.808388,764.940597 710.37156,764.810244 L703.728506,762.826189 C703.208322,764.281789 699.345282,774.278596 689.172018,781.030687 C688.924312,781.195096 688.639253,781.2773 688.354194,781.2773 C688.069135,781.2773 687.784076,781.195096 687.53637,781.030687 C677.022412,774.052339 673.271822,763.736697 672.963172,762.843608 L666.718021,764.729019 C666.575295,764.772078 666.431389,764.792629 666.289646,764.792629 C665.657208,764.792629 665.072346,764.384153 664.879292,763.750202 C664.642988,762.974352 665.083159,762.154855 665.862451,761.919399 Z M677.88152,760.860923 L682.864155,767.061855 C682.932569,767.146995 683.014744,767.164414 683.07962,767.162849 C683.139974,767.16187 683.225885,767.142493 683.291547,767.0552 L686.114417,763.307866 L678.54502,759.539785 L677.88152,760.860923 Z M688.354194,761.140221 L695.456094,757.605051 L695.456094,757.506602 C693.290433,758.489529 690.885518,759.038144 688.354194,759.038144 C685.829161,759.038144 683.430144,758.491877 681.268611,757.513452 L681.268611,757.613076 L688.354194,761.140221 Z M672.651376,722.702738 C671.540236,722.702738 670.636304,723.602678 670.636304,724.708911 C670.636304,725.100751 670.752294,725.482217 670.971494,725.812012 C671.231979,726.203656 671.288401,726.695707 671.123263,727.135695 C670.958126,727.575682 670.591678,727.910371 670.137353,728.036417 C668.89017,728.382066 668.019069,729.513743 668.019069,730.788494 C668.019069,732.373664 669.314417,733.663291 670.906619,733.663291 C672.49882,733.663291 673.794168,732.373664 673.794168,730.788494 C673.794168,730.078211 673.519921,729.390241 673.021953,728.851608 C672.702687,728.506351 672.568611,728.029958 672.661009,727.569811 C672.753408,727.109663 673.061271,726.721151 673.489056,726.524644 C674.20426,726.196023 674.666448,725.483391 674.666448,724.708911 C674.666448,723.602678 673.762516,722.702738 672.651376,722.702738 Z M708.689318,730.788494 C708.689122,729.513939 707.818218,728.382262 706.571035,728.036613 C706.116514,727.910566 705.750066,727.575878 705.585125,727.13589 C705.420183,726.695902 705.476606,726.203852 705.736894,725.812208 C705.956094,725.482413 706.072084,725.100946 706.072084,724.709107 C706.072084,723.602874 705.168152,722.702934 704.057012,722.702934 C702.945872,722.702934 702.04194,723.602678 702.04194,724.708911 C702.04194,725.483391 702.504128,726.196219 703.219332,726.524644 C703.647313,726.721151 703.955177,727.109663 704.047379,727.569811 C704.139777,728.029958 704.005701,728.506351 703.686435,728.851608 C703.188467,729.390241 702.91422,730.078211 702.91422,730.788494 C702.91422,732.373664 704.209567,733.663291 705.801769,733.663291 C707.393971,733.663291 708.689318,732.373664 708.689318,730.788494 Z M702.582569,741.936746 C702.582569,741.126057 703.242726,740.468815 704.057012,740.468815 C705.141415,740.468815 706.075819,739.755792 706.230144,738.810249 C706.406094,737.732983 705.743971,736.742031 704.690236,736.505597 C704.633224,736.492875 704.578375,736.476042 704.524509,736.457253 C701.918873,735.875561 699.965531,733.555642 699.965531,730.78869 C699.965531,729.890903 700.177064,729.014255 700.575754,728.219811 C699.645478,727.305975 699.093054,726.045511 699.093054,724.708911 C699.093054,723.717959 699.388729,722.794729 699.895151,722.020248 C697.644758,720.123681 694.820315,719.085952 691.843709,719.085952 L684.864679,719.085952 C681.874902,719.085952 679.058912,720.118592 676.810878,722.016725 C677.318873,722.791988 677.615334,723.716394 677.615334,724.708911 C677.615334,726.045511 677.06291,727.305975 676.132634,728.219811 C676.53152,729.014255 676.742857,729.890903 676.742857,730.78869 C676.742857,733.611424 674.710092,735.969508 672.025623,736.490917 C671.980406,736.509315 671.93401,736.525952 671.886239,736.540044 C671.043054,736.790767 670.288729,737.650974 670.478047,738.810444 C670.632372,739.755988 671.566776,740.469011 672.65118,740.469011 C673.465465,740.469011 674.125623,741.126252 674.125623,741.936942 C674.125623,749.747901 680.508388,756.102477 688.353997,756.102477 C696.199607,756.102477 702.582569,749.747705 702.582569,741.936746 Z M698.630472,760.46967 L698.163368,759.539785 L690.593775,763.307866 L693.416645,767.0552 C693.482307,767.142493 693.568218,767.16187 693.628571,767.162849 C693.693054,767.167938 693.775623,767.146995 693.844037,767.061855 L698.787353,760.910049 C698.712058,760.773042 698.659174,760.624488 698.630472,760.46967 Z M688.354194,778.027496 C694.95498,773.356931 698.507602,767.24427 700.017431,764.078823 L696.146723,768.89579 C695.530799,769.662246 694.617628,770.098711 693.634469,770.098711 C693.617169,770.098711 693.599869,770.098515 693.582569,770.098319 C692.579751,770.082662 691.659502,769.615468 691.057733,768.816718 L689.828834,767.185357 L689.828834,773.203875 C689.828834,774.014564 689.168676,774.671806 688.354391,774.671806 C687.540105,774.671806 686.879948,774.014564 686.879948,773.203875 L686.879948,767.185357 L685.651048,768.816718 C685.049279,769.615664 684.12903,770.082662 683.126212,770.098319 C683.108912,770.098515 683.091612,770.098711 683.074312,770.098711 C682.091153,770.098711 681.177982,769.662246 680.562058,768.89579 L676.679554,764.063948 C678.177195,767.220783 681.719201,773.335205 688.354194,778.027496 Z M681.25426,734.501773 C683.147444,734.499424 684.724312,735.454754 685.595609,736.88217 C686.410682,736.464495 687.346265,736.236476 688.329423,736.236476 C689.312779,736.236476 690.248558,736.464495 691.063434,736.88217 C691.934928,735.454949 693.511796,734.499424 695.308453,734.499424 C698.045609,734.499424 700.272412,736.716392 700.272412,739.441459 C700.272412,742.166526 698.045609,744.383494 695.308453,744.383494 C692.757471,744.383494 690.65059,742.457568 690.375754,739.989487 C689.894692,739.479821 689.142529,739.172338 688.329423,739.172338 C687.516514,739.172338 686.764351,739.479821 686.28329,739.989487 C686.008453,742.457568 683.901573,744.383494 681.35059,744.383494 C678.613434,744.383494 676.386632,742.166526 676.386632,739.441459 C676.386632,738.013847 676.998427,736.726374 677.973919,735.823498 C679.138729,734.621752 680.514875,734.499424 681.25426,734.501773 Z M683.93578,746.008004 C684.568218,745.497164 685.496723,745.593656 686.009633,746.223301 C686.636763,746.993279 687.469332,747.417218 688.353997,747.417218 C689.238663,747.417218 690.071232,746.993279 690.698362,746.223301 C691.211075,745.593656 692.139777,745.49736 692.772215,746.008004 C693.404653,746.518648 693.501376,747.443054 692.988467,748.072698 C691.807929,749.52184 690.118611,750.352884 688.353801,750.352884 C686.588991,750.352884 684.900262,749.521644 683.719528,748.072698 C683.206619,747.443054 683.303342,746.518648 683.93578,746.008004 Z M693.293381,739.441263 C693.293381,740.547496 694.197313,741.447436 695.308453,741.447436 C696.419594,741.447436 697.323526,740.547496 697.323526,739.441263 C697.323526,738.33503 696.419594,737.435091 695.308453,737.435091 C694.197313,737.435091 693.293381,738.33503 693.293381,739.441263 Z M679.335321,739.441263 C679.335321,740.547496 680.239253,741.447436 681.350393,741.447436 C682.461533,741.447436 683.365465,740.547496 683.365465,739.441263 C683.365465,738.33503 682.461533,737.435091 681.350393,737.435091 C680.239253,737.435091 679.335321,738.33503 679.335321,739.441263 Z M666.374574,768.69165 C666.950393,768.118374 667.88401,768.118374 668.459633,768.69165 L671.649738,771.867666 C673.246461,773.457337 674.125819,775.570767 674.125819,777.818854 L674.125819,804.470612 C674.125819,805.281301 673.465662,805.938543 672.651376,805.938543 C671.83709,805.938543 671.176933,805.281301 671.176933,804.470612 L671.176933,777.818854 C671.176933,776.355033 670.60426,774.978701 669.564679,773.943712 L666.374574,770.767696 C665.798755,770.19442 665.798755,769.264926 666.374574,768.69165 Z" id="Shape"></path>
        </g>
    </g>
</svg>
