<svg width="42px" height="60px" viewBox="0 0 42 60" version="1.1" xmlns="http://www.w3.org/2000/svg" xmlns:xlink="http://www.w3.org/1999/xlink">
    <!-- Generator: Sketch 51.1 (57501) - http://www.bohemiancoding.com/sketch -->
    <desc>Created with Sketch.</desc>
    <defs></defs>
    <g id="Page-1" stroke="none" stroke-width="1" fill="none" fill-rule="evenodd">
        <g id="Landing-du" transform="translate(-869.000000, -769.000000)">
            <g id="Group-16" transform="translate(850.000000, 759.000000)">
                <g id="Group-14">
                    <rect id="Rectangle-8-Copy-2" x="0" y="0" width="80" height="80"></rect>
                    <path d="M38.9329412,16.1444118 C38.9329412,15.5758824 39.3938235,15.115 39.9623529,15.115 L40.2526471,15.115 C40.8211765,15.115 41.2820588,15.5758824 41.2820588,16.1444118 C41.2820588,16.7129412 40.8211765,17.1738235 40.2526471,17.1738235 L39.9623529,17.1738235 C39.3938235,17.1738235 38.9329412,16.7129412 38.9329412,16.1444118 Z M48.6391176,12.0588235 L48.9294118,12.0588235 C49.4979412,12.0588235 49.9588235,11.5979412 49.9588235,11.0294118 C49.9588235,10.4608824 49.4979412,10 48.9294118,10 L48.6391176,10 C48.0705882,10 47.6097059,10.4608824 47.6097059,11.0294118 C47.6097059,11.5979412 48.0705882,12.0588235 48.6391176,12.0588235 Z M53.0551471,15.0226471 L53.3452941,15.0226471 C53.9138235,15.0226471 54.3747059,14.5617647 54.3747059,13.9932353 C54.3747059,13.4247059 53.9138235,12.9638235 53.3452941,12.9638235 L53.0551471,12.9638235 C52.4866176,12.9638235 52.0257353,13.4247059 52.0257353,13.9932353 C52.0257353,14.5617647 52.4866176,15.0226471 53.0551471,15.0226471 Z M48.6391176,17.1738235 L48.9294118,17.1738235 C49.4979412,17.1738235 49.9588235,16.7129412 49.9588235,16.1444118 C49.9588235,15.5758824 49.4979412,15.115 48.9294118,15.115 L48.6391176,15.115 C48.0705882,15.115 47.6097059,15.5758824 47.6097059,16.1444118 C47.6097059,16.7129412 48.0705882,17.1738235 48.6391176,17.1738235 Z M53.0551471,19.325 L53.3452941,19.325 C53.9138235,19.325 54.3747059,18.8641176 54.3747059,18.2955882 C54.3747059,17.7270588 53.9138235,17.2661765 53.3452941,17.2661765 L53.0551471,17.2661765 C52.4866176,17.2661765 52.0257353,17.7270588 52.0257353,18.2955882 C52.0257353,18.8641176 52.4866176,19.325 53.0551471,19.325 Z M44.6198529,17.2661765 L44.3297059,17.2661765 C43.7611765,17.2661765 43.3002941,17.7270588 43.3002941,18.2955882 C43.3002941,18.8641176 43.7611765,19.325 44.3297059,19.325 L44.6198529,19.325 C45.1883824,19.325 45.6492647,18.8641176 45.6492647,18.2955882 C45.6492647,17.7270588 45.1883824,17.2661765 44.6198529,17.2661765 Z M49.9588235,21.2592647 C49.9588235,20.6907353 49.4979412,20.2298529 48.9294118,20.2298529 L48.6391176,20.2298529 C48.0705882,20.2298529 47.6097059,20.6907353 47.6097059,21.2592647 C47.6097059,21.8277941 48.0705882,22.2886765 48.6391176,22.2886765 L48.9294118,22.2886765 C49.4979412,22.2886765 49.9588235,21.8277941 49.9588235,21.2592647 Z M23.2908824,64.9313235 C23.2908824,65.4998529 23.7517647,65.9607353 24.3202941,65.9607353 L38.0232353,65.9607353 C38.5917647,65.9607353 39.0526471,65.4998529 39.0526471,64.9313235 C39.0526471,64.3627941 38.5917647,63.9019118 38.0232353,63.9019118 L24.3202941,63.9019118 C23.7517647,63.9019118 23.2908824,64.3627941 23.2908824,64.9313235 Z M60.9852941,64.9507353 L60.9852941,68.9630882 C60.9852941,69.5316176 60.5244118,69.9925 59.9558824,69.9925 L49.7711765,69.9925 C49.2026471,69.9925 48.7417647,69.5316176 48.7417647,68.9630882 L48.7417647,64.9507353 C48.7417647,64.3942647 49.1833824,63.9408824 49.7352941,63.9219118 L50.0227941,58.0783824 C50.0497059,57.5301471 50.5020588,57.0995588 51.0508824,57.0995588 L58.6847059,57.0995588 C59.2335294,57.0995588 59.6860294,57.5301471 59.7127941,58.0783824 L60.0001471,63.9222059 C60.5480882,63.9454412 60.9852941,64.3970588 60.9852941,64.9507353 Z M51.7967647,63.9213235 L57.9389706,63.9213235 L57.7048529,59.1583824 L52.0310294,59.1583824 L51.7967647,63.9213235 Z M58.9264706,65.9801471 L50.8005882,65.9801471 L50.8005882,67.9336765 L58.9264706,67.9336765 L58.9264706,65.9801471 Z M55.02,60.4119118 L54.7066176,60.4119118 C54.1380882,60.4119118 53.6772059,60.8727941 53.6772059,61.4413235 C53.6772059,62.0098529 54.1380882,62.4707353 54.7066176,62.4707353 L55.02,62.4707353 C55.5885294,62.4707353 56.0494118,62.0098529 56.0494118,61.4413235 C56.0494118,60.8727941 55.5885294,60.4119118 55.02,60.4119118 Z M44.6198529,12.9638235 L44.3297059,12.9638235 C43.7611765,12.9638235 43.3002941,13.4247059 43.3002941,13.9932353 C43.3002941,14.5617647 43.7611765,15.0226471 44.3297059,15.0226471 L44.6198529,15.0226471 C45.1883824,15.0226471 45.6492647,14.5617647 45.6492647,13.9932353 C45.6492647,13.4247059 45.1883824,12.9638235 44.6198529,12.9638235 Z M43.3430882,28.7469118 L43.3430882,67.5122059 C43.3430882,68.8797059 42.2305882,69.9923529 40.8629412,69.9923529 L21.4801471,69.9923529 C20.1125,69.9923529 19,68.8797059 19,67.5122059 L19,28.7469118 C19,28.1783824 19.4608824,27.7175 20.0294118,27.7175 L20.7585294,27.7175 C21.1102941,24.1305882 23.2807353,21.0695588 26.3330882,19.4708824 L26.6104412,13.84 C26.6375,13.2917647 27.0897059,12.8611765 27.6385294,12.8611765 L34.7048529,12.8611765 C35.2536765,12.8611765 35.7061765,13.2917647 35.7329412,13.84 L35.7854412,14.9085294 C35.8063235,14.9073529 35.8270588,14.9066176 35.8482353,14.9066176 C36.4167647,14.9066176 36.8776471,15.3675 36.8776471,15.9360294 L36.8776471,16.3523529 C36.8776471,16.9011765 36.4482353,17.3495588 35.9070588,17.3801471 L36.0098529,19.4707353 C39.0622059,21.0694118 41.2332353,24.1305882 41.5848529,27.7175 L42.3135294,27.7175 C42.8823529,27.7175 43.3430882,28.1783824 43.3430882,28.7469118 Z M28.435,18.6464706 C29.3076471,18.4098529 30.2251471,18.2835294 31.1716176,18.2835294 C32.1180882,18.2835294 33.0354412,18.4097059 33.9079412,18.6464706 L33.7247059,14.9201471 L28.6185294,14.9201471 L28.435,18.6464706 Z M22.8298529,27.7175 L39.5136765,27.7175 C39.0045588,23.5670588 35.4576471,20.3423529 31.1716176,20.3423529 C26.8858824,20.3423529 23.3389706,23.5670588 22.8298529,27.7175 Z M25.1608824,29.7763235 L25.1608824,37.8311765 C25.1608824,38.4114706 25.6329412,38.8836765 26.2132353,38.8836765 C26.7936765,38.8836765 27.2658824,38.4114706 27.2658824,37.8311765 L27.2658824,32.7532353 C27.2658824,32.1847059 27.7267647,31.7238235 28.2952941,31.7238235 C28.8638235,31.7238235 29.3247059,32.1847059 29.3247059,32.7532353 C29.3247059,33.3335294 29.7967647,33.8057353 30.3770588,33.8057353 C30.9576471,33.8057353 31.4297059,33.3335294 31.4297059,32.7532353 L31.4297059,29.7763235 L25.1608824,29.7763235 Z M41.2842647,29.7763235 L33.4885294,29.7763235 L33.4885294,32.7532353 C33.4885294,34.4688235 32.0929412,35.8645588 30.3775,35.8645588 C30.0080882,35.8645588 29.6536765,35.8 29.3247059,35.6813235 L29.3247059,37.8311765 C29.3247059,39.5467647 27.9291176,40.9425 26.2135294,40.9425 C24.4977941,40.9425 23.1020588,39.5467647 23.1020588,37.8311765 L23.1020588,29.7763235 L21.0588235,29.7763235 L21.0588235,67.5122059 C21.0588235,67.7405882 21.2519118,67.9335294 21.4801471,67.9335294 L40.8629412,67.9335294 C41.0913235,67.9335294 41.2842647,67.7405882 41.2842647,67.5122059 L41.2842647,29.7763235 Z" id="XMLID_616_" fill="#86A438" fill-rule="nonzero" opacity="0.5"></path>
                </g>
            </g>
        </g>
    </g>
</svg>
