<svg xmlns="http://www.w3.org/2000/svg" width="30" height="30" viewBox="0 0 30 30">
    <g fill="none" fill-rule="evenodd">
        <rect width="30" height="30" fill="#50E3C2" rx="15"/>
        <path fill="#FFF" fill-rule="nonzero" d="M14.68 7.843c0-.17.138-.308.309-.308h.087a.309.309 0 1 1 0 .617h-.087a.309.309 0 0 1-.31-.309zm2.912-1.225h.087a.309.309 0 1 0 0-.618h-.087a.309.309 0 1 0 0 .618zm1.325.889h.087a.309.309 0 1 0 0-.618h-.087a.309.309 0 1 0 0 .618zm-1.325.645h.087a.309.309 0 1 0 0-.617h-.087a.309.309 0 1 0 0 .617zm1.325.646h.087a.309.309 0 1 0 0-.618h-.087a.309.309 0 1 0 0 .617zm-2.531-.618h-.087a.309.309 0 1 0 0 .617h.087a.309.309 0 1 0 0-.617zm1.602 1.198a.309.309 0 0 0-.31-.309h-.086a.309.309 0 1 0 0 .618h.087c.17 0 .309-.139.309-.31zm-8 13.101c0 .171.138.31.308.31h4.111a.309.309 0 1 0 0-.618h-4.11a.309.309 0 0 0-.31.308zm11.308.006v1.204c0 .17-.139.309-.31.309h-3.055a.309.309 0 0 1-.308-.31v-1.203c0-.167.132-.303.298-.308l.086-1.753a.309.309 0 0 1 .308-.294h2.29c.165 0 .3.129.309.294L21 22.177a.309.309 0 0 1 .296.308zm-2.757-.309h1.843l-.07-1.428h-1.703l-.07 1.428zm2.139.618H18.24v.586h2.438v-.586zm-1.172-1.67h-.094a.309.309 0 1 0 0 .617h.094a.309.309 0 1 0 0-.617zm-3.12-14.235h-.087a.309.309 0 1 0 0 .618h.087a.309.309 0 1 0 0-.618zm-.383 4.735v11.63c0 .41-.334.744-.744.744H9.444a.745.745 0 0 1-.744-.744v-11.63c0-.17.138-.309.309-.309h.219A3.145 3.145 0 0 1 10.9 8.841l.083-1.689a.309.309 0 0 1 .309-.294h2.12c.164 0 .3.13.308.294l.016.32h.018c.171 0 .31.138.31.309v.125c0 .164-.13.299-.292.308l.031.627a3.145 3.145 0 0 1 1.672 2.474h.22c.17 0 .308.139.308.31zm-4.473-3.03a3.133 3.133 0 0 1 1.642 0l-.055-1.118h-1.531l-.056 1.118zM9.85 11.315h5.005a2.525 2.525 0 0 0-2.503-2.212c-1.285 0-2.35.967-2.502 2.212zm.7.618v2.416a.316.316 0 0 0 .63 0v-1.523a.309.309 0 1 1 .618 0 .316.316 0 0 0 .632 0v-.893h-1.88zm4.836 0h-2.338v.893a.934.934 0 0 1-1.25.878v.645a.934.934 0 0 1-1.866 0v-2.416h-.613v11.32c0 .07.058.127.126.127h5.815a.128.128 0 0 0 .126-.126V11.933z"/>
    </g>
</svg>
