<svg xmlns="http://www.w3.org/2000/svg" width="30" height="30" viewBox="0 0 30 30">
    <g fill="none" fill-rule="evenodd">
        <rect width="30" height="30" fill="#F5A623" rx="15"/>
        <path fill="#FFF" fill-rule="nonzero" d="M6 11.791h.58v12.163h1.737V11.79h7.007l-1.185 10.425h-1.768v1.738h11.004V11.79h.579V6H6v5.791zm1.737 11.584h-.579V11.79h.58v11.584zm6.938-12.163l.848-1.175-.133 1.175h-.715zm.935 3.186h4.525l.362 3.185h-5.249l.362-3.185zm4.295-2.027l.164 1.448h-4.393l.165-1.448h4.064zm-3.998-.58l.197-1.737h3.537l.198 1.737h-3.932zm4.514 0h1.216v10.425h-.03L20.42 11.791zm-5.238 6.371h5.38l.164 1.448h-5.709l.165-1.448zm-.23 2.027h5.84l.23 2.027h-6.301l.23-2.027zm7.842 3.186H12.95v-.58H22.795v.58zm-.579-1.159V11.791h.58v10.425h-.58zm1.159-11.004h-1.738l1.738-2.316v2.316zm0-4.633v1.352l-2.462 3.281h-.558l-.142-1.253 2.44-3.38h.722zm-1.436 0l-2.09 2.896h-1.603l2.091-2.896h1.602zm-2.316 0L17.53 9.475H15.93l2.092-2.896h1.602zm-2.317 0l-3.346 4.633h-1.602l3.346-4.633h1.602zm-2.316 0l-3.346 4.633H10.04l3.346-4.633h1.603zm-2.317 0l-3.346 4.633H7.725L11.07 6.58h1.602zm-6.094 0h1.458L6.58 8.584V6.58zm0 2.99l2.175-2.99h1.602L7.01 11.212h-.43V9.57z"/>
    </g>
</svg>
