<svg xmlns="http://www.w3.org/2000/svg" width="30" height="30" viewBox="0 0 30 30">
    <g fill="none" fill-rule="evenodd">
        <rect width="30" height="30" fill="#EE485D" rx="15"/>
        <path fill="#FFF" fill-rule="nonzero" d="M21 10.8H9a.3.3 0 0 0-.3.3v12.6a.3.3 0 0 0 .3.3h12a.3.3 0 0 0 .3-.3V11.1a.3.3 0 0 0-.3-.3zm-.3 12.6H9.3v-12h11.4v12zm.9-15H8.4a.3.3 0 0 0-.3.3v2.4a.3.3 0 0 0 .3.3h13.2a.3.3 0 0 0 .3-.3V8.7a.3.3 0 0 0-.3-.3zm-.3 2.4H8.7V9h12.6v1.8zm-1.5-3.6h-9.6c-.827 0-1.5.673-1.5 1.5A.3.3 0 0 0 9 9h12a.3.3 0 0 0 .3-.3c0-.827-.673-1.5-1.5-1.5zM9.351 8.4c.124-.35.458-.6.849-.6h9.6c.391 0 .725.25.848.6H9.351zM18 6h-6a.3.3 0 0 0-.3.3v1.2a.3.3 0 0 0 .3.3h6a.3.3 0 0 0 .3-.3V6.3A.3.3 0 0 0 18 6zm-.3 1.2h-5.4v-.6h5.4v.6zm-6.3 5.1c-.662 0-1.2.538-1.2 1.2v7.8a1.201 1.201 0 0 0 2.4 0v-7.8c0-.662-.538-1.2-1.2-1.2zm.6 9a.6.6 0 0 1-1.2 0v-7.8a.6.6 0 0 1 1.2 0v7.8zm6.6-9c-.662 0-1.2.538-1.2 1.2v7.8a1.201 1.201 0 0 0 2.4 0v-7.8c0-.662-.538-1.2-1.2-1.2zm.6 9a.6.6 0 0 1-1.2 0v-7.8a.6.6 0 0 1 1.2 0v7.8zm-4.2-9c-.662 0-1.2.538-1.2 1.2v7.8a1.201 1.201 0 0 0 2.4 0v-7.8c0-.662-.538-1.2-1.2-1.2zm.6 9a.6.6 0 0 1-1.2 0v-7.8a.6.6 0 0 1 1.2 0v7.8zm3.3-11.7a.3.3 0 1 1 0 .6H8.4a.3.3 0 1 1 0-.6h10.5zm2.7 0a.3.3 0 1 1 0 .6h-1.5a.3.3 0 1 1 0-.6h1.5zM7.5 23.4a.3.3 0 1 1 0 .6H6.3a.3.3 0 1 1 0-.6h1.2zm16.2 0a.3.3 0 1 1 0 .6H21a.3.3 0 1 1 0-.6h2.7z"/>
    </g>
</svg>
