<svg xmlns="http://www.w3.org/2000/svg" width="30" height="30" viewBox="0 0 30 30">
    <g fill="none" fill-rule="evenodd">
        <rect width="30" height="30" fill="#7C8AE5" rx="15"/>
        <path fill="#FFF" fill-rule="nonzero" d="M21.825 13.425l-.776-1.048a.93.93 0 0 0-.744-.375h-4.358v-.686h.403a.352.352 0 0 0 .351-.352V7.751a.352.352 0 0 0-.351-.352h-.403v-.433a.968.968 0 0 0-1.933 0V7.4H9.5a.93.93 0 0 0-.745.375l-.776 1.048a.895.895 0 0 0 0 1.07l.776 1.049a.93.93 0 0 0 .745.375h4.515v.686h-.56a.352.352 0 0 0-.352.352v3.213c0 .194.157.352.351.352h.561v5.911a1.82 1.82 0 0 0-.85 1.467h-1.337a.352.352 0 0 0 0 .703h6.149a.352.352 0 0 0 0-.703h-1.178a1.82 1.82 0 0 0-.85-1.467V15.92h4.357a.93.93 0 0 0 .744-.375l.776-1.048a.895.895 0 0 0 0-1.071zm-6.844-6.722c.145 0 .263.118.263.263V7.4h-.526v-.433c0-.145.118-.263.263-.263zm-5.482 3.91a.225.225 0 0 1-.18-.09l-.776-1.049a.196.196 0 0 1 0-.234l.776-1.047a.224.224 0 0 1 .18-.09h6.5v2.51h-6.5zm5.219.703h.526v.686h-.526v-.686zm1.377 11.98h-2.228a1.118 1.118 0 0 1 1.114-1.042c.59 0 1.076.462 1.114 1.043zm-1.377-1.725v-5.652h.526v5.652a1.828 1.828 0 0 0-.526 0zm6.542-7.494l-.776 1.048a.224.224 0 0 1-.18.09h-6.5v-2.51h6.5c.071 0 .138.034.18.09l.776 1.048a.196.196 0 0 1 0 .234zM15.39 9.621a.344.344 0 0 1-.053.264.336.336 0 0 1-.157.13.354.354 0 0 1-.33-.033.36.36 0 0 1-.15-.223.352.352 0 0 1 .69-.138zm-1.751-.282a.352.352 0 0 1 0 .703h-2.75a.352.352 0 0 1 0-.703h2.75z"/>
    </g>
</svg>
