
<svg width="139px" height="40px" viewBox="0 0 139 40" version="1.1" xmlns="http://www.w3.org/2000/svg" xmlns:xlink="http://www.w3.org/1999/xlink">
    <!-- Generator: Sketch 51.1 (57501) - http://www.bohemiancoding.com/sketch -->
    <desc>Created with Sketch.</desc>
    <defs></defs>
    <g id="Page-1" stroke="none" stroke-width="1" fill="none" fill-rule="evenodd">
        <g id="Group">
            <path d="M46.248261,4.62106299 L52.7513859,4.62106299 C54.3055996,4.62106299 55.6791495,4.91838613 56.8720767,5.51304134 C58.0650039,6.10769654 58.9920648,6.94498585 59.6532873,8.02493438 C60.3145098,9.10488292 60.6451161,10.3625256 60.6451161,11.7979003 C60.6451161,13.2332749 60.3145098,14.4909176 59.6532873,15.5708661 C58.9920648,16.6508147 58.0650039,17.488104 56.8720767,18.0827592 C55.6791495,18.6774144 54.3055996,18.9747375 52.7513859,18.9747375 L46.248261,18.9747375 L46.248261,4.62106299 Z M52.5877853,16.2475394 C54.0192979,16.2475394 55.1610825,15.847691 56.0131734,15.0479823 C56.8652642,14.2482736 57.2913033,13.1649237 57.2913033,11.7979003 C57.2913033,10.4308768 56.8652642,9.34752696 56.0131734,8.54781824 C55.1610825,7.74810952 54.0192979,7.34826115 52.5877853,7.34826115 L49.5611737,7.34826115 L49.5611737,16.2475394 L52.5877853,16.2475394 Z M74.2554297,16.3090551 L74.2554297,18.9747375 L63.1714873,18.9747375 L63.1714873,4.62106299 L73.9895787,4.62106299 L73.9895787,7.28674541 L66.4639499,7.28674541 L66.4639499,10.4035433 L73.1102254,10.4035433 L73.1102254,12.9872047 L66.4639499,12.9872047 L66.4639499,16.3090551 L74.2554297,16.3090551 Z M83.7348276,19.2208005 C82.276048,19.2208005 80.9570312,18.9029723 79.7777374,18.2673064 C78.5984437,17.6316405 77.6713827,16.7499236 76.9965268,15.6221293 C76.3216708,14.4943349 75.9842479,13.2196047 75.9842479,11.7979003 C75.9842479,10.3761959 76.3216708,9.10146561 76.9965268,7.97367126 C77.6713827,6.84587691 78.5984437,5.96416 79.7777374,5.32849409 C80.9570312,4.69282819 82.2828646,4.375 83.7552776,4.375 C84.9959219,4.375 86.1172567,4.59372047 87.1193155,5.03116798 C88.1213744,5.46861549 88.9632275,6.09743684 89.6449002,6.91765092 L87.518092,8.88615486 C86.5501168,7.76519562 85.3503909,7.20472441 83.9188783,7.20472441 C83.0327038,7.20472441 82.2419753,7.39952233 81.5466692,7.78912402 C80.851363,8.1787257 80.3094414,8.72210937 79.920888,9.41929134 C79.5323345,10.1164733 79.3380607,10.909335 79.3380607,11.7979003 C79.3380607,12.6864655 79.5323345,13.4793272 79.920888,14.1765092 C80.3094414,14.8736911 80.851363,15.4170748 81.5466692,15.8066765 C82.2419753,16.1962782 83.0327038,16.3910761 83.9188783,16.3910761 C85.3503909,16.3910761 86.5501168,15.8237699 87.518092,14.6891404 L89.6449002,16.6576444 C88.9632275,17.4915287 88.117966,18.127185 87.1090905,18.5646325 C86.1002149,19.0020801 84.9754718,19.2208005 83.7348276,19.2208005 Z M98.5312457,19.2208005 C97.0451993,19.2208005 95.7057325,18.8995548 94.5128053,18.2570538 C93.3198782,17.6145528 92.3860006,16.7294184 91.7111446,15.601624 C91.0362887,14.4738297 90.6988658,13.2059344 90.6988658,11.7979003 C90.6988658,10.3898661 91.0362887,9.12197086 91.7111446,7.99417651 C92.3860006,6.86638216 93.3198782,5.98124774 94.5128053,5.33874672 C95.7057325,4.69624569 97.0451993,4.375 98.5312457,4.375 C100.017292,4.375 101.353351,4.69624569 102.539461,5.33874672 C103.725572,5.98124774 104.659449,6.86638216 105.341122,7.99417651 C106.022794,9.12197086 106.363626,10.3898661 106.363626,11.7979003 C106.363626,13.2059344 106.022794,14.4738297 105.341122,15.601624 C104.659449,16.7294184 103.725572,17.6145528 102.539461,18.2570538 C101.353351,18.8995548 100.017292,19.2208005 98.5312457,19.2208005 Z M98.5312457,16.3910761 C99.3765199,16.3910761 100.139982,16.1962782 100.821654,15.8066765 C101.503327,15.4170748 102.038432,14.8736911 102.426986,14.1765092 C102.815539,13.4793272 103.009813,12.6864655 103.009813,11.7979003 C103.009813,10.909335 102.815539,10.1164733 102.426986,9.41929134 C102.038432,8.72210937 101.503327,8.1787257 100.821654,7.78912402 C100.139982,7.39952233 99.3765199,7.20472441 98.5312457,7.20472441 C97.6859716,7.20472441 96.9225096,7.39952233 96.240837,7.78912402 C95.5591643,8.1787257 95.0240592,8.72210937 94.6355058,9.41929134 C94.2469524,10.1164733 94.0526786,10.909335 94.0526786,11.7979003 C94.0526786,12.6864655 94.2469524,13.4793272 94.6355058,14.1765092 C95.0240592,14.8736911 95.5591643,15.4170748 96.240837,15.8066765 C96.9225096,16.1962782 97.6859716,16.3910761 98.5312457,16.3910761 Z M118.010732,18.9747375 L115.249971,14.9762139 L112.20291,14.9762139 L112.20291,18.9747375 L108.889997,18.9747375 L108.889997,4.62106299 L115.086371,4.62106299 C116.354282,4.62106299 117.455167,4.83294845 118.389058,5.25672572 C119.32295,5.68050299 120.042104,6.28198429 120.546542,7.06118766 C121.050979,7.84039104 121.303194,8.76311803 121.303194,9.82939633 C121.303194,10.8956746 121.047571,11.8149841 120.536316,12.5873524 C120.025062,13.3597206 119.299091,13.9509494 118.358383,14.3610564 L121.569045,18.9747375 L118.010732,18.9747375 Z M117.949382,9.82939633 C117.949382,9.02285249 117.69035,8.40428365 117.172279,7.97367126 C116.654207,7.54305887 115.897562,7.32775591 114.90232,7.32775591 L112.20291,7.32775591 L112.20291,12.3310367 L114.90232,12.3310367 C115.897562,12.3310367 116.654207,12.1123163 117.172279,11.6748688 C117.69035,11.2374213 117.949382,10.6222699 117.949382,9.82939633 Z M130.884843,19.2208005 C129.398796,19.2208005 128.059329,18.8995548 126.866402,18.2570538 C125.673475,17.6145528 124.739597,16.7294184 124.064742,15.601624 C123.389886,14.4738297 123.052463,13.2059344 123.052463,11.7979003 C123.052463,10.3898661 123.389886,9.12197086 124.064742,7.99417651 C124.739597,6.86638216 125.673475,5.98124774 126.866402,5.33874672 C128.059329,4.69624569 129.398796,4.375 130.884843,4.375 C132.370889,4.375 133.706948,4.69624569 134.893058,5.33874672 C136.079168,5.98124774 137.013046,6.86638216 137.694719,7.99417651 C138.376391,9.12197086 138.717223,10.3898661 138.717223,11.7979003 C138.717223,13.2059344 138.376391,14.4738297 137.694719,15.601624 C137.013046,16.7294184 136.079168,17.6145528 134.893058,18.2570538 C133.706948,18.8995548 132.370889,19.2208005 130.884843,19.2208005 Z M130.884843,16.3910761 C131.730117,16.3910761 132.493579,16.1962782 133.175251,15.8066765 C133.856924,15.4170748 134.392029,14.8736911 134.780583,14.1765092 C135.169136,13.4793272 135.36341,12.6864655 135.36341,11.7979003 C135.36341,10.909335 135.169136,10.1164733 134.780583,9.41929134 C134.392029,8.72210937 133.856924,8.1787257 133.175251,7.78912402 C132.493579,7.39952233 131.730117,7.20472441 130.884843,7.20472441 C130.039569,7.20472441 129.276107,7.39952233 128.594434,7.78912402 C127.912761,8.1787257 127.377656,8.72210937 126.989103,9.41929134 C126.600549,10.1164733 126.406275,10.909335 126.406275,11.7979003 C126.406275,12.6864655 126.600549,13.4793272 126.989103,14.1765092 C127.377656,14.8736911 127.912761,15.4170748 128.594434,15.8066765 C129.276107,16.1962782 130.039569,16.3910761 130.884843,16.3910761 Z M52.6082353,35.625 C50.5632173,35.625 48.9715355,35.0576938 47.8331421,33.9230643 C46.6947487,32.7884348 46.1255605,31.1685363 46.1255605,29.0633202 L46.1255605,21.0252625 L49.4384732,21.0252625 L49.4384732,28.9402887 C49.4384732,31.5102928 50.5018667,32.7952756 52.6286854,32.7952756 C53.6648279,32.7952756 54.4555564,32.4842824 55.0008945,31.8622867 C55.5462327,31.2402911 55.8188976,30.2663015 55.8188976,28.9402887 L55.8188976,21.0252625 L59.0909102,21.0252625 L59.0909102,29.0633202 C59.0909102,31.1685363 58.521722,32.7884348 57.3833286,33.9230643 C56.2449352,35.0576938 54.6532534,35.625 52.6082353,35.625 Z M71.263426,35.378937 L68.5026654,31.3804134 L65.4556038,31.3804134 L65.4556038,35.378937 L62.1426911,35.378937 L62.1426911,21.0252625 L68.3390648,21.0252625 C69.606976,21.0252625 70.7078609,21.2371479 71.6417524,21.6609252 C72.575644,22.0847025 73.2947979,22.6861838 73.7992357,23.4653871 C74.3036735,24.2445905 74.5558886,25.1673175 74.5558886,26.2335958 C74.5558886,27.2998741 74.3002652,28.2191836 73.7890106,28.9915518 C73.2777561,29.7639201 72.5517856,30.3551489 71.6110773,30.7652559 L74.8217396,35.378937 L71.263426,35.378937 Z M71.2020757,26.2335958 C71.2020757,25.427052 70.943044,24.8084831 70.4249728,24.3778707 C69.9069015,23.9472583 69.1502562,23.7319554 68.1550141,23.7319554 L65.4556038,23.7319554 L65.4556038,28.7352362 L68.1550141,28.7352362 C69.1502562,28.7352362 69.9069015,28.5165157 70.4249728,28.0790682 C70.943044,27.6416207 71.2020757,27.0264694 71.2020757,26.2335958 Z M87.4646072,27.9150262 C88.2826144,28.1747607 88.9233772,28.6087841 89.3869146,29.2171096 C89.850452,29.825435 90.0822172,30.5738691 90.0822172,31.4624344 C90.0822172,32.720096 89.5948286,33.6872506 88.6200366,34.3639272 C87.6452447,35.0406038 86.2239785,35.378937 84.3561953,35.378937 L76.953267,35.378937 L76.953267,21.0252625 L83.9471938,21.0252625 C85.6922758,21.0252625 87.0317426,21.3601782 87.9656341,22.0300197 C88.8995257,22.6998612 89.3664645,23.6089181 89.3664645,24.7572178 C89.3664645,25.4543998 89.1994572,26.0763862 88.8654376,26.6231955 C88.531418,27.1700049 88.0644792,27.6006109 87.4646072,27.9150262 Z M80.2457296,23.5269029 L80.2457296,26.910269 L83.5381922,26.910269 C84.3561994,26.910269 84.9765122,26.7667337 85.3991493,26.4796588 C85.8217864,26.1925839 86.0331017,25.768813 86.0331017,25.2083333 C86.0331017,24.6478537 85.8217864,24.2275003 85.3991493,23.9472605 C84.9765122,23.6670207 84.3561994,23.5269029 83.5381922,23.5269029 L80.2457296,23.5269029 Z M84.1107944,32.8772966 C84.9833354,32.8772966 85.6411397,32.7337613 86.0842269,32.4466864 C86.5273142,32.1596114 86.7488545,31.7153355 86.7488545,31.1138451 C86.7488545,29.9245347 85.8695099,29.3298885 84.1107944,29.3298885 L80.2457296,29.3298885 L80.2457296,32.8772966 L84.1107944,32.8772966 Z M101.804831,32.3031496 L95.1585559,32.3031496 L93.890651,35.378937 L90.4959381,35.378937 L96.8763625,21.0252625 L100.148375,21.0252625 L106.549249,35.378937 L103.072736,35.378937 L101.804831,32.3031496 Z M100.761877,29.7810039 L98.4919187,24.2855971 L96.22196,29.7810039 L100.761877,29.7810039 Z M120.950824,21.0252625 L120.950824,35.378937 L118.230963,35.378937 L111.093886,26.664206 L111.093886,35.378937 L107.821874,35.378937 L107.821874,21.0252625 L110.562184,21.0252625 L117.678811,29.7399934 L117.678811,21.0252625 L120.950824,21.0252625 Z M131.057882,35.625 C129.571835,35.625 128.232369,35.3037543 127.039441,34.6612533 C125.846514,34.0187523 124.912637,33.1336178 124.237781,32.0058235 C123.562925,30.8780291 123.225502,29.6101339 123.225502,28.2020997 C123.225502,26.7940656 123.562925,25.5261703 124.237781,24.398376 C124.912637,23.2705816 125.846514,22.3854472 127.039441,21.7429462 C128.232369,21.1004452 129.571835,20.7791995 131.057882,20.7791995 C132.543928,20.7791995 133.879987,21.1004452 135.066097,21.7429462 C136.252208,22.3854472 137.186085,23.2705816 137.867758,24.398376 C138.549431,25.5261703 138.890262,26.7940656 138.890262,28.2020997 C138.890262,29.6101339 138.549431,30.8780291 137.867758,32.0058235 C137.186085,33.1336178 136.252208,34.0187523 135.066097,34.6612533 C133.879987,35.3037543 132.543928,35.625 131.057882,35.625 Z M131.057882,32.7952756 C131.903156,32.7952756 132.666618,32.6004777 133.348291,32.210876 C134.029963,31.8212743 134.565068,31.2778906 134.953622,30.5807087 C135.342175,29.8835267 135.536449,29.090665 135.536449,28.2020997 C135.536449,27.3135345 135.342175,26.5206728 134.953622,25.8234908 C134.565068,25.1263089 134.029963,24.5829252 133.348291,24.1933235 C132.666618,23.8037218 131.903156,23.6089239 131.057882,23.6089239 C130.212608,23.6089239 129.449146,23.8037218 128.767473,24.1933235 C128.0858,24.5829252 127.550695,25.1263089 127.162142,25.8234908 C126.773588,26.5206728 126.579315,27.3135345 126.579315,28.2020997 C126.579315,29.090665 126.773588,29.8835267 127.162142,30.5807087 C127.550695,31.2778906 128.0858,31.8212743 128.767473,32.210876 C129.449146,32.6004777 130.212608,32.7952756 131.057882,32.7952756 Z" id="DECORO-URBANO-Copy-6" fill="#467D30"></path>
            <path d="M10.2027741,11.4224759 L10.2027741,2.54611166 C13.0831016,0.927248267 16.4023058,3.55271368e-15 19.9387255,3.55271368e-15 C22.5834187,3.55271368e-15 25.1055313,0.520940304 27.4148743,1.45837811 L10.2027741,11.4224759 Z M22.4793204,7.25654559 L30.1466442,2.81772662 C35.2238962,5.85739418 38.8384372,11.0935448 39.6888801,17.2193697 L22.4793204,7.25654559 Z M29.674804,28.5775241 L29.674804,37.4538883 C26.7944765,39.0727517 23.4752723,40 19.9388526,40 C17.2947945,40 14.7720468,39.4790597 12.4627038,38.5416219 L29.674804,28.5775241 Z M7.66224269,24.1653253 L0,19.7296906 C0.0832024032,13.4389225 3.06197547,7.85250639 7.66224269,4.2434982 L7.66224269,24.1653253 Z M32.2153354,15.8343563 L39.8775781,20.269991 C39.7950108,26.561396 36.8156026,32.147812 32.2153354,35.7561834 L32.2153354,15.8343563 Z M17.3976225,32.743136 L9.73093389,37.181955 C4.6536819,34.1422874 1.03914085,28.9061368 0.189333102,22.7803119 L17.3976225,32.743136 Z" id="Combined-Shape-Copy-7" fill="#467D30"></path>
            <path d="M29.4449971,25.1539486 L19.7090456,30.7900387 L9.97309417,25.1539486 L9.97309417,18.2288816 L12.4037476,18.2288816 L12.4037476,21.3583445 L13.3208794,21.3583445 L13.3208794,22.9116127 L14.2240383,22.9116127 L14.2240383,20.1368732 L17.5654722,20.1368732 L17.5654722,24.1853054 L18.3193749,24.1853054 L18.7957246,22.9116127 L19.9338826,22.9116127 L19.9338826,20.1368732 L20.3352866,20.1368732 C20.3352866,18.1295335 21.6881196,16.4431644 23.5280994,15.9330505 L23.5280994,14.3364768 L23.9155305,14.3364768 L23.9155305,13.9671059 L24.6897574,12.6233601 L25.4639844,13.9671059 L25.4639844,14.3364768 L25.8514154,14.3364768 L25.8514154,15.9330505 C27.6907601,16.4431644 29.0435931,18.1295335 29.0435931,20.1368732 L29.4449971,20.1368732 L29.4449971,25.1539486 Z M17.9083805,13.1462746 C17.9083805,14.5384207 16.7822899,15.6675493 15.3932544,15.6675493 C14.004854,15.6675493 12.8781283,14.5384207 12.8781283,13.1462746 C12.8781283,11.7534917 14.004854,10.625 15.3932544,10.625 C16.7822899,10.625 17.9083805,11.7534917 17.9083805,13.1462746 Z" id="Combined-Shape-Copy-9" fill="#42120C"></path>
        </g>
    </g>
</svg>