<?xml version="1.0" encoding="utf-8"?>
<!-- Generator: Adobe Illustrator 22.1.0, SVG Export Plug-In . SVG Version: 6.00 Build 0)  -->
<svg version="1.1" id="Livello_1" xmlns="http://www.w3.org/2000/svg" xmlns:xlink="http://www.w3.org/1999/xlink" x="0px" y="0px"
	 viewBox="0 0 50 70" style="enable-background:new 0 0 50 70;" xml:space="preserve">
<style type="text/css">
	.st0{fill:#D77BE9;}
	.st1{fill:#FFFFFF;}
</style>
<g>
	<path class="st0" d="M25,0c13.8,0,25,11.2,25,25c0,9.2-8.3,24.2-25,45C8.3,49.2,0,34.2,0,25C0,11.2,11.2,0,25,0z"/>
	<path class="st1" d="M36,13.6v1h4v-1h-1.5v-1.5c0-0.3-0.2-0.5-0.5-0.5h-2c-0.1,0-0.3,0.1-0.4,0.1l-3.9,3.9h-8.6l3-3h1.3v1H26v1h4
		v-1h-1.5v-1.5c0-0.3-0.2-0.5-0.5-0.5h-2c-0.1,0-0.3,0.1-0.4,0.1l-3.9,3.9h-9.1l3-3H17v1h-1.5v1h4v-1H18v-1.5c0-0.3-0.2-0.5-0.5-0.5
		h-2c-0.1,0-0.3,0.1-0.4,0.1l-3.9,3.9h-0.8c-0.3,0-0.5,0.2-0.5,0.5v19c0,0.3,0.2,0.5,0.5,0.5H13v5.5c0,0.3,0.2,0.5,0.5,0.5H16
		c0.3,0,0.5-0.2,0.5-0.5v-5.5h17v5.5c0,0.3,0.2,0.5,0.5,0.5h2.5c0.3,0,0.5-0.2,0.5-0.5v-5.5h2.5c0.3,0,0.5-0.2,0.5-0.5v-19
		c0-0.3-0.2-0.5-0.5-0.5h-6.3l3-3h1.3v1H36z M15.5,40.6H14v-5h1.5V40.6z M36,40.6h-1.5v-5H36V40.6z M39,16.6v18H11v-18H39z"/>
</g>
</svg>
