<?xml version="1.0" encoding="utf-8"?>
<!-- Generator: Adobe Illustrator 22.1.0, SVG Export Plug-In . SVG Version: 6.00 Build 0)  -->
<svg version="1.1" id="Livello_1" xmlns="http://www.w3.org/2000/svg" xmlns:xlink="http://www.w3.org/1999/xlink" x="0px" y="0px"
	 viewBox="0 0 50 70" style="enable-background:new 0 0 50 70;" xml:space="preserve">
<style type="text/css">
	.st0{fill:#7ED321;}
	.st1{fill:#FFFFFF;}
</style>
<g>
	<path class="st0" d="M25,0c13.8,0,25,11.2,25,25c0,9.2-8.3,24.2-25,45C8.3,49.2,0,34.2,0,25C0,11.2,11.2,0,25,0z"/>
	<path class="st1" d="M39.9,25.1c0-1.3-0.6-2.6-1.6-3.4c0.4-0.6,0.6-1.3,0.6-2.1c0-2-1.5-3.7-3.5-3.9c0.3-2.2-1.2-4.2-3.4-4.5
		c-1.5-0.2-2.9,0.4-3.8,1.6c-1.3-1.8-3.7-2.2-5.5-0.9c-0.4,0.3-0.7,0.6-0.9,0.9c-1.3-1.8-3.7-2.2-5.5-0.9c-1.2,0.9-1.8,2.3-1.6,3.8
		c-2,0.2-3.5,1.9-3.5,3.9c0,0.7,0.2,1.4,0.6,2.1c-1.9,1.6-2.1,4.4-0.5,6.3c0.2,0.2,0.3,0.3,0.5,0.5c-1.1,1.9-0.5,4.3,1.3,5.5
		c0.6,0.4,1.3,0.6,2,0.6h3V40h-1.5c-0.3,0-0.5,0.3-0.5,0.5c0,0.3,0.2,0.5,0.5,0.5h16.9c0.3,0,0.5-0.3,0.5-0.5c0-0.3-0.2-0.5-0.5-0.5
		h-1.5v-5.5h3c2.2,0,4-1.8,4-4c0-0.7-0.2-1.4-0.6-2.1C39.3,27.7,39.9,26.4,39.9,25.1L39.9,25.1z M15.1,33.5c-1.6,0-3-1.3-3-3
		c0-0.7,0.2-1.3,0.7-1.9c0.2-0.2,0.1-0.5-0.1-0.7c0,0,0,0,0,0c-1.6-1.1-2-3.2-0.9-4.8c0.3-0.4,0.6-0.7,0.9-0.9
		c0.2-0.2,0.3-0.5,0.1-0.7c0,0,0,0,0,0c-0.4-0.5-0.7-1.2-0.7-1.9c0-1.6,1.3-3,3-3l0.1,0c0.2,0,0.3-0.1,0.4-0.2
		c0.1-0.1,0.1-0.3,0.1-0.4c-0.5-1.6,0.4-3.2,2-3.7c1.4-0.4,2.9,0.2,3.5,1.6c0,0,0,0,0,0c-0.1,0.2-0.1,0.4-0.1,0.6l0,0.1
		c-0.1,0.4-0.1,0.7,0,1.1c-2.2,0.3-3.7,2.2-3.5,4.4c0.1,0.6,0.3,1.1,0.5,1.6l0,0l-2.3-2.3c-0.2-0.2-0.5-0.2-0.7,0.1
		c-0.2,0.2-0.2,0.5,0,0.6l2.3,2.3c-1.4,1.9-1.1,4.5,0.7,6c-0.2,0.3-0.3,0.6-0.4,1l-1.8-1.8c-0.2-0.2-0.5-0.2-0.7,0
		c-0.2,0.2-0.2,0.5,0,0.7l2.3,2.3c0,0.1,0,0.1,0,0.2c0,0,0,0.1,0,0.1c0,0.1,0,0.2,0,0.3c0,0.1,0,0.1,0,0.2c0,0.1,0,0.2,0.1,0.2
		c0,0.1,0,0.1,0.1,0.2c0.1,0.2,0.2,0.4,0.3,0.6c0.1,0.2,0.3,0.4,0.5,0.6c0.1,0.1,0.2,0.2,0.3,0.3c0,0,0.1,0.1,0.1,0.1H15.1
		L15.1,33.5z M24.5,40H19v-5.5h5.5V40z M25,17.7c-0.3,0-0.5,0.2-0.5,0.5l0,0v3.5l-2.3-2.3c-0.2-0.2-0.5-0.2-0.7,0
		c-0.2,0.2-0.2,0.5,0,0.7l3,3v6.8l-2.1-2.1c-0.2-0.2-0.5-0.2-0.7,0c-0.2,0.2-0.2,0.5,0,0.7l2.8,2.8v2.3h-3c-1.6,0-3-1.3-3-3
		c0-0.7,0.2-1.3,0.7-1.9c0.2-0.2,0.1-0.5-0.1-0.7c0,0,0,0,0,0c-1.6-1.1-2-3.2-0.9-4.8c0.3-0.4,0.6-0.7,0.9-0.9
		c0.2-0.2,0.3-0.5,0.1-0.7c0,0,0,0,0,0c-0.4-0.5-0.7-1.2-0.7-1.9c0-1.6,1.3-3,3-3l0.1,0c0.2,0,0.3-0.1,0.4-0.2
		c0.1-0.1,0.1-0.3,0.1-0.4c-0.1-0.5-0.2-1-0.1-1.4c0.3-1.4,1.5-2.4,2.9-2.4c1.6,0,3,1.3,3,3c0,0.3,0,0.6-0.1,0.9
		c0,0.2,0,0.3,0.1,0.4c0.1,0.1,0.3,0.2,0.4,0.2l0.1,0c1.6,0,3,1.3,3,3c0,0.7-0.2,1.3-0.7,1.9c-0.2,0.2-0.1,0.5,0.1,0.7c0,0,0,0,0,0
		c1.6,1.1,2,3.2,0.9,4.8c-0.3,0.4-0.6,0.7-0.9,0.9c-0.2,0.2-0.3,0.5-0.1,0.7c0,0,0,0,0,0c0.4,0.5,0.7,1.2,0.7,1.9c0,1.6-1.3,3-3,3
		h-3v-6.8c0,0,0.1,0,0.1-0.1l3.2-3.2c0.2-0.2,0.2-0.5-0.1-0.7c-0.2-0.2-0.5-0.2-0.6,0l-2.6,2.6v-7.2C25.5,17.9,25.3,17.7,25,17.7
		L25,17.7L25,17.7z M31,40h-5.5v-5.5H31L31,40L31,40z M37.2,28.7L37.2,28.7c0.4,0.6,0.7,1.2,0.7,1.9c0,1.6-1.3,3-3,3h-3.8l0.1-0.1
		c0.2-0.1,0.3-0.3,0.4-0.5c0.1-0.1,0.2-0.2,0.2-0.3l0.1-0.1l0.1-0.2l0.1-0.2c0-0.1,0.1-0.1,0.1-0.2c0-0.1,0-0.1,0.1-0.2
		c0-0.1,0-0.2,0.1-0.2c0-0.1,0-0.1,0-0.2c0-0.1,0-0.2,0-0.3c0,0,0-0.1,0-0.1c0.1-0.9-0.1-1.7-0.6-2.5c0.9-0.8,1.5-2,1.6-3.2l1.8-1.8
		c0.2-0.2,0.2-0.5-0.1-0.7c-0.2-0.2-0.5-0.2-0.6,0L33.3,24c-0.2-0.9-0.7-1.7-1.4-2.3c1.1-1.9,0.5-4.3-1.3-5.5
		c-0.5-0.3-1-0.5-1.6-0.5c0-0.4,0-0.7,0-1.1c0,0,0-0.1,0-0.1c0-0.2-0.1-0.4-0.1-0.6c0,0,0,0,0,0c0.7-1.5,2.5-2.1,4-1.4
		c1.3,0.6,2,2.1,1.6,3.5c0,0.2,0,0.3,0.1,0.4c0.1,0.1,0.3,0.2,0.4,0.2l0.1,0c1.6,0,3,1.3,3,3c0,0.7-0.2,1.3-0.7,1.9
		c-0.2,0.2-0.1,0.5,0.1,0.7c0,0,0,0,0,0c1.6,1.1,2,3.2,0.9,4.8c-0.3,0.4-0.6,0.7-0.9,0.9C37.1,28.1,37.1,28.5,37.2,28.7z"/>
</g>
</svg>
