<?xml version="1.0" encoding="utf-8"?>
<!-- Generator: Adobe Illustrator 22.1.0, SVG Export Plug-In . SVG Version: 6.00 Build 0)  -->
<svg version="1.1" id="Livello_1" xmlns="http://www.w3.org/2000/svg" xmlns:xlink="http://www.w3.org/1999/xlink" x="0px" y="0px"
	 viewBox="0 0 50 70" style="enable-background:new 0 0 50 70;" xml:space="preserve">
<style type="text/css">
	.st0{fill:#50E3C2;}
	.st1{fill:#FFFFFF;}
</style>
<g>
	<path class="st0" d="M25,0c13.8,0,25,11.2,25,25c0,9.2-8.3,24.2-25,45C8.3,49.2,0,34.2,0,25C0,11.2,11.2,0,25,0z"/>
	<path class="st1" d="M24.4,12.5c0-0.3,0.3-0.6,0.6-0.6h0.2c0.3,0,0.6,0.2,0.6,0.6c0,0.3-0.2,0.6-0.6,0.6c0,0,0,0-0.1,0H25
		C24.7,13,24.4,12.8,24.4,12.5z M29.9,10.2H30c0.3,0,0.6-0.2,0.6-0.6c0-0.3-0.2-0.6-0.6-0.6c0,0,0,0-0.1,0h-0.2
		c-0.3,0-0.6,0.3-0.6,0.6S29.5,10.2,29.9,10.2C29.9,10.2,29.9,10.2,29.9,10.2L29.9,10.2z M32.4,11.8h0.2c0.3,0,0.6-0.3,0.6-0.6
		c0-0.3-0.3-0.6-0.6-0.6c0,0,0,0,0,0h-0.2c-0.3,0-0.6,0.3-0.6,0.6C31.8,11.6,32,11.8,32.4,11.8C32.4,11.8,32.4,11.8,32.4,11.8z
		 M29.9,13H30c0.3,0,0.6-0.3,0.6-0.6c0-0.3-0.3-0.6-0.6-0.6c0,0,0,0,0,0h-0.2c-0.3,0-0.6,0.3-0.6,0.6C29.3,12.8,29.5,13,29.9,13
		C29.9,13,29.9,13,29.9,13z M32.4,14.2h0.2c0.3,0,0.6-0.2,0.6-0.6c0-0.3-0.2-0.6-0.6-0.6c0,0,0,0-0.1,0h-0.2c-0.3,0-0.6,0.3-0.6,0.6
		C31.8,14,32,14.2,32.4,14.2C32.4,14.2,32.4,14.2,32.4,14.2L32.4,14.2z M27.6,13.1h-0.2c-0.3,0-0.6,0.3-0.6,0.6
		c0,0.3,0.3,0.6,0.6,0.6c0,0,0,0,0,0h0.2c0.3,0,0.6-0.3,0.6-0.6C28.2,13.3,27.9,13.1,27.6,13.1C27.6,13.1,27.6,13.1,27.6,13.1z
		 M30.6,15.3c0-0.3-0.3-0.6-0.6-0.6h-0.2c-0.3,0-0.6,0.3-0.6,0.6s0.3,0.6,0.6,0.6c0,0,0,0,0,0H30C30.3,15.9,30.6,15.7,30.6,15.3
		L30.6,15.3z M15.6,39.9c0,0.3,0.3,0.6,0.6,0.6h7.7c0.3,0,0.6-0.2,0.6-0.6c0-0.3-0.2-0.6-0.6-0.6c0,0,0,0-0.1,0h-7.7
		C15.9,39.3,15.6,39.6,15.6,39.9L15.6,39.9z M36.8,39.9v2.3c0,0.3-0.3,0.6-0.6,0.6h-5.7c-0.3,0-0.6-0.3-0.6-0.6v-2.3
		c0-0.3,0.2-0.6,0.6-0.6l0.2-3.3c0-0.3,0.3-0.6,0.6-0.6h4.3c0.3,0,0.6,0.2,0.6,0.6l0.2,3.3C36.6,39.4,36.8,39.6,36.8,39.9L36.8,39.9
		z M31.6,39.3h3.5L35,36.7h-3.2L31.6,39.3z M35.7,40.5h-4.6v1.1h4.6L35.7,40.5L35.7,40.5z M33.5,37.4h-0.2c-0.3,0-0.6,0.3-0.6,0.6
		c0,0.3,0.3,0.6,0.6,0.6c0,0,0,0,0,0h0.2c0.3,0,0.6-0.3,0.6-0.6C34,37.6,33.8,37.4,33.5,37.4C33.5,37.4,33.5,37.4,33.5,37.4z
		 M27.6,10.7h-0.2c-0.3,0-0.6,0.3-0.6,0.6c0,0.3,0.3,0.6,0.6,0.6c0,0,0,0,0,0h0.2c0.3,0,0.6-0.3,0.6-0.6S27.9,10.7,27.6,10.7
		C27.6,10.7,27.6,10.7,27.6,10.7z M26.9,19.6v21.8c0,0.8-0.6,1.4-1.4,1.4H14.6c-0.8,0-1.4-0.6-1.4-1.4V19.6c0-0.3,0.3-0.6,0.6-0.6
		h0.4c0.2-2,1.4-3.7,3.1-4.6l0.2-3.2c0-0.3,0.3-0.6,0.6-0.6h4c0.3,0,0.6,0.2,0.6,0.6l0,0.6h0c0.3,0,0.6,0.3,0.6,0.6v0.2
		c0,0.3-0.2,0.6-0.5,0.6l0.1,1.2c1.8,0.9,2.9,2.7,3.1,4.6h0.4C26.6,19,26.9,19.2,26.9,19.6L26.9,19.6z M18.5,13.9
		c1-0.3,2.1-0.3,3.1,0l-0.1-2.1h-2.9L18.5,13.9L18.5,13.9z M15.3,19h9.4c-0.3-2.4-2.3-4.1-4.7-4.2C17.6,14.8,15.6,16.6,15.3,19z
		 M16.7,20.1v4.5c0,0.3,0.3,0.6,0.6,0.6c0.3,0,0.6-0.3,0.6-0.6v-2.9c0-0.3,0.3-0.6,0.6-0.6c0.3,0,0.6,0.3,0.6,0.6
		c0,0.3,0.3,0.6,0.6,0.6c0.3,0,0.5-0.3,0.6-0.6v-1.7L16.7,20.1L16.7,20.1z M25.7,20.1h-4.4v1.7c0,1-0.8,1.8-1.8,1.8
		c-0.2,0-0.4,0-0.6-0.1v1.2c0,1-0.8,1.8-1.8,1.8c-1,0-1.8-0.8-1.8-1.8v-4.5h-1.2v21.2c0,0.1,0.1,0.2,0.2,0.2h10.9
		c0.1,0,0.2-0.1,0.2-0.2L25.7,20.1L25.7,20.1z"/>
</g>
</svg>
