<?xml version="1.0" encoding="utf-8"?>
<!-- Generator: Adobe Illustrator 22.1.0, SVG Export Plug-In . SVG Version: 6.00 Build 0)  -->
<svg version="1.1" id="Livello_1" xmlns="http://www.w3.org/2000/svg" xmlns:xlink="http://www.w3.org/1999/xlink" x="0px" y="0px"
	 viewBox="0 0 50 70" style="enable-background:new 0 0 50 70;" xml:space="preserve">
<style type="text/css">
	.st0{fill:#F5A623;}
	.st1{fill:#FFFFFF;}
</style>
<g>
	<path class="st0" d="M25,0c13.8,0,25,11.2,25,25c0,9.2-8.3,24.2-25,45C8.3,49.2,0,34.2,0,25C0,11.2,11.2,0,25,0z"/>
	<path class="st1" d="M12.6,23.1h0.8V40h2.4V23.1h9.7l-1.6,14.5h-2.5V40h15.3V23.1h0.8v-8H12.6V23.1z M15,39.2h-0.8V23.1H15L15,39.2
		L15,39.2z M24.6,22.3l1.2-1.6l-0.2,1.6C25.6,22.3,24.6,22.3,24.6,22.3z M25.9,26.7h6.3l0.5,4.4h-7.3C25.4,31.1,25.9,26.7,25.9,26.7
		z M31.9,23.9l0.2,2H26l0.2-2H31.9z M26.4,23.1l0.3-2.4h4.9l0.3,2.4H26.4z M32.6,23.1h1.7v14.5h0L32.6,23.1L32.6,23.1z M25.4,31.9
		h7.5l0.2,2h-7.9L25.4,31.9z M25,34.8h8.1l0.3,2.8h-8.7L25,34.8L25,34.8z M35.9,39.2H22.3v-0.8h13.7C35.9,38.4,35.9,39.2,35.9,39.2z
		 M35.1,37.6V23.1h0.8v14.5C35.9,37.6,35.1,37.6,35.1,37.6z M36.7,22.3h-2.4l2.4-3.2V22.3z M36.7,15.9v1.9l-3.4,4.6h-0.8l-0.2-1.7
		l3.4-4.7C35.7,15.9,36.7,15.9,36.7,15.9z M34.7,15.9l-2.9,4h-2.2l2.9-4C32.5,15.9,34.7,15.9,34.7,15.9z M31.5,15.9l-2.9,4h-2.2
		l2.9-4L31.5,15.9L31.5,15.9z M28.3,15.9l-4.6,6.4h-2.2l4.6-6.4H28.3z M25.1,15.9l-4.6,6.4h-2.2l4.6-6.4H25.1L25.1,15.9z M21.9,15.9
		l-4.6,6.4H15l4.6-6.4L21.9,15.9L21.9,15.9z M13.4,15.9h2l-2,2.8L13.4,15.9L13.4,15.9z M13.4,20l3-4.2h2.2L14,22.3h-0.6L13.4,20
		L13.4,20z"/>
</g>
</svg>
