<?xml version="1.0" encoding="utf-8"?>
<!-- Generator: Adobe Illustrator 22.1.0, SVG Export Plug-In . SVG Version: 6.00 Build 0)  -->
<svg version="1.1" id="Livello_1" xmlns="http://www.w3.org/2000/svg" xmlns:xlink="http://www.w3.org/1999/xlink" x="0px" y="0px"
	 viewBox="0 0 50 70" style="enable-background:new 0 0 50 70;" xml:space="preserve">
<style type="text/css">
	.st0{fill:#EE485D;}
	.st1{fill:#FFFFFF;}
</style>
<g>
	<path class="st0" d="M25,0c13.8,0,25,11.2,25,25c0,9.2-8.3,24.2-25,45C8.3,49.2,0,34.2,0,25C0,11.2,11.2,0,25,0z"/>
	<path class="st1" d="M35,18.4H15c-0.3,0-0.5,0.2-0.5,0.5v21c0,0.3,0.2,0.5,0.5,0.5h20c0.3,0,0.5-0.2,0.5-0.5v-21
		C35.5,18.6,35.3,18.4,35,18.4z M34.5,39.4h-19v-20h19V39.4z M36,14.4H14c-0.3,0-0.5,0.2-0.5,0.5v4c0,0.3,0.2,0.5,0.5,0.5h22
		c0.3,0,0.5-0.2,0.5-0.5v-4C36.5,14.6,36.3,14.4,36,14.4z M35.5,18.4h-21v-3h21V18.4z M33,12.4H17c-1.4,0-2.5,1.1-2.5,2.5
		c0,0.3,0.2,0.5,0.5,0.5h20c0.3,0,0.5-0.2,0.5-0.5C35.5,13.5,34.4,12.4,33,12.4z M15.6,14.4c0.2-0.6,0.8-1,1.4-1h16
		c0.7,0,1.2,0.4,1.4,1H15.6z M30,10.4H20c-0.3,0-0.5,0.2-0.5,0.5v2c0,0.3,0.2,0.5,0.5,0.5h10c0.3,0,0.5-0.2,0.5-0.5v-2
		C30.5,10.6,30.3,10.4,30,10.4z M29.5,12.4h-9v-1h9V12.4z M19,20.9c-1.1,0-2,0.9-2,2v13c0,1.1,0.9,2,2,2s2-0.9,2-2v-13
		C21,21.8,20.1,20.9,19,20.9z M20,35.9c0,0.6-0.5,1-1,1c-0.5,0-0.9-0.4-1-1v-13c0-0.6,0.5-1,1-1c0.5,0,0.9,0.4,1,1V35.9z M31,20.9
		c-1.1,0-2,0.9-2,2v13c0,1.1,0.9,2,2,2s2-0.9,2-2v-13C33,21.8,32.1,20.9,31,20.9z M32,35.9c0,0.6-0.5,1-1,1c-0.5,0-0.9-0.4-1-1v-13
		c0-0.6,0.5-1,1-1c0.5,0,0.9,0.4,1,1V35.9z M25,20.9c-1.1,0-2,0.9-2,2v13c0,1.1,0.9,2,2,2s2-0.9,2-2v-13C27,21.8,26.1,20.9,25,20.9z
		 M26,35.9c0,0.6-0.5,1-1,1c-0.5,0-0.9-0.4-1-1v-13c0-0.6,0.5-1,1-1c0.5,0,0.9,0.4,1,1V35.9z M31.5,16.4c0.3,0,0.5,0.2,0.5,0.5
		s-0.2,0.5-0.5,0.5H14c-0.3,0-0.5-0.2-0.5-0.5s0.2-0.5,0.5-0.5H31.5z M36,16.4c0.3,0,0.5,0.2,0.5,0.5s-0.2,0.5-0.5,0.5h-2.5
		c-0.3,0-0.5-0.2-0.5-0.5s0.2-0.5,0.5-0.5H36z M12.5,39.4c0.3,0,0.5,0.2,0.5,0.5s-0.2,0.5-0.5,0.5h-2c-0.3,0-0.5-0.2-0.5-0.5
		s0.2-0.5,0.5-0.5H12.5z M39.5,39.4c0.3,0,0.5,0.2,0.5,0.5s-0.2,0.5-0.5,0.5H35c-0.3,0-0.5-0.2-0.5-0.5s0.2-0.5,0.5-0.5H39.5z"/>
</g>
</svg>
