<?xml version="1.0" encoding="utf-8"?>
<!-- Generator: Adobe Illustrator 22.1.0, SVG Export Plug-In . SVG Version: 6.00 Build 0)  -->
<svg version="1.1" id="Livello_1" xmlns="http://www.w3.org/2000/svg" xmlns:xlink="http://www.w3.org/1999/xlink" x="0px" y="0px"
	 viewBox="0 0 50 70" style="enable-background:new 0 0 50 70;" xml:space="preserve">
<style type="text/css">
	.st0{fill:#7C8AE5;}
	.st1{fill:#FFFFFF;}
</style>
<g>
	<path class="st0" d="M25,0c13.8,0,25,11.2,25,25c0,9.2-8.3,24.2-25,45C8.3,49.2,0,34.2,0,25C0,11.2,11.2,0,25,0z"/>
	<path class="st1" d="M37.3,23l-1.4-1.9c-0.3-0.4-0.8-0.7-1.4-0.7h-8v-1.3h0.7c0.4,0,0.6-0.3,0.6-0.6c0,0,0,0,0,0v-5.9
		c0-0.4-0.3-0.6-0.6-0.6l0,0h-0.7v-0.8c0-1-0.8-1.8-1.8-1.8c-1,0-1.8,0.8-1.8,1.8V12h-8.3c-0.5,0-1,0.3-1.4,0.7l-1.4,1.9
		c-0.4,0.6-0.4,1.4,0,2l1.4,1.9c0.3,0.4,0.8,0.7,1.4,0.7H23v1.3h-1c-0.4,0-0.6,0.3-0.6,0.6v5.9c0,0.4,0.3,0.6,0.6,0.6h1v10.8
		C22,39,21.5,40,21.4,41.1H19c-0.4,0-0.6,0.3-0.6,0.6c0,0.4,0.3,0.6,0.6,0.6h11.3c0.4,0,0.6-0.3,0.6-0.6c0-0.4-0.3-0.6-0.6-0.6h-2.2
		c0-1.1-0.6-2.1-1.6-2.7V27.6h8c0.5,0,1-0.3,1.4-0.7l1.4-1.9C37.7,24.4,37.7,23.6,37.3,23L37.3,23z M24.7,10.7
		c0.3,0,0.5,0.2,0.5,0.5V12h-1v-0.8C24.3,10.9,24.5,10.7,24.7,10.7L24.7,10.7L24.7,10.7z M14.7,17.8c-0.1,0-0.3-0.1-0.3-0.2L13,15.8
		c-0.1-0.1-0.1-0.3,0-0.4l1.4-1.9c0.1-0.1,0.2-0.2,0.3-0.2h11.9v4.6H14.7L14.7,17.8z M24.3,19.1h1v1.3h-1V19.1z M26.8,41.1h-4.1
		c0.1-1.1,1-1.9,2-1.9C25.8,39.2,26.7,40,26.8,41.1L26.8,41.1z M24.3,37.9V27.6h1v10.4C24.9,37.9,24.6,37.9,24.3,37.9z M36.3,24.2
		l-1.4,1.9c-0.1,0.1-0.2,0.2-0.3,0.2H22.6v-4.6h11.9c0.1,0,0.3,0.1,0.3,0.2l1.4,1.9C36.3,23.9,36.3,24.1,36.3,24.2L36.3,24.2z
		 M25.5,16c0,0.2,0,0.3-0.1,0.5c-0.1,0.1-0.2,0.2-0.3,0.2c-0.2,0.1-0.4,0.1-0.6-0.1c-0.1-0.1-0.2-0.2-0.3-0.4c0-0.4,0.2-0.7,0.6-0.7
		C25.1,15.5,25.4,15.7,25.5,16L25.5,16z M22.3,15.5c0.4,0,0.6,0.3,0.6,0.6c0,0.4-0.3,0.6-0.6,0.6h-5c-0.4,0-0.6-0.3-0.6-0.6
		c0-0.4,0.3-0.6,0.6-0.6C17.3,15.5,22.3,15.5,22.3,15.5z"/>
</g>
</svg>
